<?xml version="1.0" encoding="UTF-8"?>
<!-- Generated by Pixelmator Pro 3.7 -->
<svg width="1024" height="1024" viewBox="0 0 1024 1024" xmlns="http://www.w3.org/2000/svg">
    <path id="Shape" fill="#3c2119" fill-rule="evenodd" stroke="none" d="M 524.184631 884.890442 C 518.858093 884.8302 512.700012 884.419556 510.5 883.977966 C 508.299988 883.536377 503.959381 882.220947 500.854187 881.054688 C 497.748962 879.888428 492.498718 877.182922 489.186981 875.04248 C 485.875214 872.901978 481.262604 868.754272 478.936737 865.825317 C 476.61087 862.896362 473.456512 857.86792 471.927032 854.650879 C 470.397583 851.433838 468.594971 845.717285 467.921265 841.94751 C 467.194183 837.878845 466.936096 831.695923 467.286285 826.733887 C 467.660767 821.427368 468.825806 815.841064 470.47641 811.437256 C 471.906494 807.621765 474.572418 802.25 476.400665 799.5 C 478.228912 796.75 482.254669 792.118652 485.346802 789.20813 C 488.603241 786.142944 494.04892 782.453491 498.288757 780.440002 C 502.314667 778.528076 509.409149 776.242493 514.054321 775.36084 C 519.794189 774.271362 525.147766 773.941528 530.764587 774.331238 C 535.310059 774.646667 541.61438 775.630066 544.774109 776.516663 C 547.933777 777.403198 551.591553 778.937622 552.902466 779.926392 C 555.234985 781.685852 555.27533 781.980408 554.791992 793.716431 C 554.520325 800.312134 553.993225 806.201965 553.620605 806.804871 C 553.169922 807.534119 551.767334 807.10321 549.431152 805.517822 C 547.499573 804.207031 543.799866 802.316772 541.209595 801.317261 C 537.910767 800.044373 533.803955 799.5 527.5 799.5 C 521.273804 799.5 517.082458 800.047119 513.900513 801.275208 C 511.37085 802.251587 507.430176 804.651855 505.143494 806.609192 C 502.856812 808.566467 499.832611 812.135864 498.423065 814.541077 C 496.987366 816.990906 495.473145 821.65271 494.980072 825.14093 C 494.411469 829.163757 494.479797 833.160706 495.173187 836.433777 C 495.763458 839.220215 497.051544 843.075012 498.035583 845 C 499.019623 846.924988 501.32666 849.923767 503.162384 851.66394 C 504.998077 853.404114 508.084717 855.750427 510.021606 856.877991 C 511.958466 858.005493 516.79541 859.485718 520.770325 860.167358 C 526.346313 861.123535 529.533997 861.143433 534.722778 860.254639 C 538.421692 859.621094 544.118286 857.725586 547.381775 856.042419 C 550.645325 854.359253 553.582031 853.248413 553.907776 853.573792 C 554.233459 853.899231 554.658875 859.756836 554.853027 866.590698 C 555.206116 879.01593 555.206116 879.01593 551.60144 880.522095 C 549.618896 881.350403 544.818115 882.696838 540.933044 883.514099 C 537.047974 884.33136 529.511169 884.950684 524.184631 884.890442 Z M 186 883 L 186 776 L 200.300659 776 L 214.601303 776 L 223.419373 789.75 C 228.269302 797.3125 237.471512 811.551758 243.868713 821.392761 L 255.5 839.285522 L 255.764053 807.642761 L 256.028107 776 L 268.514038 776 L 281 776 L 281 829.5 L 281 883 L 268.25 882.980347 L 255.5 882.960693 L 233.5 850.13031 L 211.5 817.299927 L 211.236526 850.149963 L 210.973038 883 L 198.486526 883 L 186 883 Z M 297 883 L 297 776 L 333.5 776 L 370 776 L 370 788.5 L 370 801 L 346.5 801 L 323 801 L 323 809 L 323 817 L 344 817 L 365 817 L 365 829 L 365 841 L 344 841 L 323 841 L 323 850 L 323 859 L 346 859 L 369 859 L 369 871 L 369 883 L 333 883 L 297 883 Z M 410 883.059753 L 410 801 L 395.5 801 L 381 801 L 381 788.48877 L 381 775.977539 L 421.75 776.23877 L 462.5 776.5 L 462.5 788.5 L 462.5 800.5 L 449 800.776123 L 435.5 801.052185 L 435.5 841.776123 L 435.5 882.5 L 422.75 882.779907 L 410 883.059753 Z M 567.982483 883 L 568.5 776.5 L 592.097778 776.584717 C 614.88147 776.666443 615.998047 776.763672 624.463867 779.403198 C 631.499512 781.596802 634.171631 783.015747 637.986572 786.584167 C 640.942749 789.349365 643.80719 793.389282 645.560059 797.265686 C 647.816101 802.254883 648.391174 804.99939 648.439575 811.00769 C 648.476074 815.545837 647.80365 820.735657 646.739502 824.128784 C 645.661682 827.565552 643.365784 831.574951 640.818542 834.468811 C 638.530212 837.068481 635.15155 839.913818 633.310364 840.791809 C 631.469177 841.6698 630.083618 842.638367 630.231384 842.944092 C 630.379089 843.249878 634.681396 851.724854 639.791931 861.777527 C 644.902527 871.8302 649.338135 880.717651 649.648926 881.527527 C 650.129395 882.779602 648.180969 883 636.630066 883 C 623.60968 883 622.990112 882.906616 621.696045 880.75 C 620.953491 879.512512 618.203369 873.549988 615.584595 867.5 C 612.965881 861.450012 609.850525 854.474976 608.661621 852 C 606.5 847.5 606.5 847.5 600.25 847.202271 C 594 846.904541 594 846.904541 594 864.952271 L 594 883 L 580.991211 883 L 567.982483 883 Z M 690.541077 776.5 L 720.5 775.982056 L 728.370483 796.741028 C 732.69928 808.158447 739.993958 827.400024 744.580872 839.5 C 749.167786 851.599976 754.728516 866.19751 756.938049 871.938965 C 759.147644 877.680359 760.801941 882.531372 760.61438 882.718933 C 760.426819 882.906494 754.24939 882.93396 746.886719 882.779968 L 733.5 882.5 L 729.5 871 L 725.5 859.5 L 705.463196 859.22998 L 685.426392 858.959961 L 681.34259 870.72998 L 677.258789 882.5 L 664.129395 882.779053 C 656.908203 882.932495 651.014099 882.70752 651.031311 882.279053 C 651.048523 881.850586 659.945251 857.875 670.801819 829 L 690.541077 776.5 Z M 768 883 L 768 775.800415 L 793.25 776.246582 C 813.128418 776.5979 819.595764 777.046631 823.65094 778.355713 C 826.483948 779.270325 830.967407 781.476929 833.614197 783.259338 C 836.933167 785.494385 839.291321 788.164612 841.213257 791.864197 C 843.451965 796.173523 844 798.54718 844 803.934875 C 844 809.268188 843.436951 811.753052 841.25 816.070679 C 839.50354 819.518738 837.133972 822.380615 834.756653 823.913208 L 831.013306 826.326477 L 834.756653 828.041199 C 836.815491 828.984314 840.032166 831.273376 841.904846 833.127991 C 843.777527 834.982605 846.161255 838.412964 847.202087 840.750977 C 848.242859 843.08905 849.35199 847.176392 849.666748 849.833984 C 850.033936 852.934204 849.655518 856.673218 848.610901 860.266541 C 847.715393 863.346863 845.524109 867.763489 843.741394 870.081299 C 841.958618 872.399048 838.090454 875.648987 835.145447 877.303345 C 832.200439 878.957642 827.250488 880.909119 824.145447 881.639954 C 820.244141 882.558228 810.699036 882.973572 793.25 882.984375 L 768 883 Z M 792 838 L 792 861.21582 L 803.25 860.816406 C 811.192078 860.534485 815.414185 859.928528 817.609131 858.755676 C 819.319153 857.841919 821.283142 855.730591 821.973572 854.063843 C 822.696899 852.317566 822.958191 849.590576 822.590149 847.628723 C 822.238831 845.756226 820.830933 843.103699 819.461487 841.734253 C 818.092041 840.364746 815.571716 838.964355 813.860779 838.622192 C 812.149841 838.279968 806.53125 838 801.375 838 L 792 838 Z M 705.329895 802.801331 C 700.990234 814.967773 698.392944 822.325012 696.758362 827 C 695.12384 831.674988 693.557068 836.512512 693.276672 837.75 C 692.768616 839.992188 692.810852 840 705.500061 840 C 717.157776 840 718.189453 839.852173 717.714661 838.25 C 717.429443 837.287476 714.526184 828.917786 711.263 819.650635 L 705.329895 802.801331 Z M 594 800 C 594 819.116699 594.337524 825.018433 594.75 825.448303 C 595.162476 825.878235 599.166809 825.978394 603.648438 825.670837 C 608.130127 825.363281 613.433838 824.427734 615.434448 823.591797 C 617.950562 822.540527 619.523315 820.99176 620.536011 818.568115 C 621.341187 816.640991 622 813.991943 622 812.681335 C 622 811.370728 621.500305 808.865112 620.889648 807.11322 C 620.151428 804.995605 618.488953 803.269775 615.929443 801.963989 C 612.943604 800.440735 610.051025 800 603.039856 800 L 594 800 Z M 792 796.767395 C 792 818 792 818 799.25 817.994446 C 803.237488 817.991333 808.167053 817.525879 810.204529 816.959961 C 812.242004 816.394104 814.850586 814.734131 816.001343 813.271118 C 817.56189 811.287292 818.01825 809.478821 817.796875 806.156189 C 817.5625 802.639648 816.914978 801.265991 814.722534 799.634888 C 812.4646 797.955017 810.079712 797.49353 801.972534 797.167969 L 792 796.767395 Z M 590.5 766.902283 C 587.200012 766.852661 581.574097 766.228333 577.997986 765.514893 C 574.421875 764.801392 568.796875 763.110474 565.497986 761.757202 C 562.199097 760.403931 557.025024 757.830261 554 756.037964 C 550.974976 754.245605 545.575012 750.288818 542 747.245239 C 538.424988 744.201599 533.884583 739.86377 531.910156 737.605713 C 529.935791 735.347534 526.335754 730.787964 523.910156 727.473145 C 521.484558 724.158447 517.373718 716.920349 514.774963 711.38855 C 512.176147 705.856812 508.934113 697.161438 507.570343 692.065552 C 506.206604 686.969604 504.559998 678.234375 503.911224 672.65387 C 503.22702 666.768494 503.002747 658.370361 503.377228 652.656372 C 503.7323 647.238281 504.718719 639.436157 505.569275 635.318359 C 506.41983 631.200562 508.477325 623.931885 510.141541 619.165771 C 511.805725 614.399536 514.674072 607.727661 516.515686 604.339233 C 519.864014 598.178467 519.864014 598.178467 516.501648 591.839233 C 514.652344 588.352661 512.175903 582.125 510.998535 578 C 509.737518 573.582031 508.622406 566.062134 508.284973 559.700806 C 507.712097 548.901611 507.712097 548.901611 504.856049 551.637939 C 502.108307 554.270386 501.999176 554.736877 501.978363 563.937134 C 501.965576 569.579712 501.180695 576.984497 500.063751 582 C 499.022614 586.674988 496.74054 594.435425 494.992462 599.245361 C 493.244415 604.055359 489.375885 611.930359 486.395721 616.745361 C 483.415558 621.560425 478.540619 627.75 475.562531 630.5 C 470.752991 634.941162 470.032837 636.135864 469.119141 641.188843 C 468.553406 644.317749 466.759796 649.492798 465.133392 652.688843 C 463.506958 655.88501 460.418335 661.200012 458.269806 664.5 C 456.121246 667.799988 451.680328 673.521362 448.401123 677.214172 C 445.121887 680.906982 439.390167 686.564514 435.663971 689.786499 C 431.937744 693.008545 426.447754 697.124268 423.463989 698.932617 C 420.480225 700.740967 416.19223 702.85675 413.935089 703.634399 C 411.677948 704.412048 407.056702 705.325928 403.665619 705.665344 C 397.5 706.282349 397.5 706.282349 387.5 715.891174 C 382 721.176025 374.125 728.472046 370 732.104614 C 365.875 735.737183 358.067932 741.979858 352.65094 745.977295 C 347.233978 749.974731 339.816132 754.990112 336.16684 757.122681 C 332.517517 759.255249 328.371277 761 326.952972 761 C 325.378906 761 323.229858 759.803711 321.437103 757.929626 C 318.562042 754.924072 318.500092 754.633606 318.503632 744.179626 C 318.506256 736.464844 319.130066 731.001465 320.750702 724.5 C 321.984589 719.549988 325.132965 711.028931 327.74707 705.564331 C 330.361176 700.09967 334.919189 692.22467 337.875977 688.064331 C 340.832733 683.903931 345.974274 677.411865 349.301575 673.637512 C 353.969269 668.342651 355.497101 665.813721 355.989838 662.566895 C 356.341095 660.252441 357.819672 656.227539 359.275574 653.622559 C 360.731506 651.0177 364.953583 644.974487 368.65799 640.193237 C 372.362396 635.411926 382.392273 624.555908 390.946625 616.068604 C 399.500977 607.581421 407.276276 599.276001 408.225067 597.612244 C 409.329346 595.675781 409.581421 594.359375 408.925507 593.953979 C 408.361969 593.605713 405.560669 593.702026 402.700439 594.16803 C 399.84021 594.634033 390.299988 595.685303 381.5 596.504211 C 372.700012 597.32312 361.77478 597.994629 357.22171 597.996582 C 348.943451 598 348.943451 598 343.72171 603.628052 C 340.849762 606.723511 334.225006 612.846069 329 617.233765 C 323.774994 621.62146 314.286316 628.674072 307.914063 632.90625 C 301.541809 637.138428 292.077667 642.753479 286.882629 645.384155 C 279.225983 649.261353 276.071594 650.293396 270.226837 650.833618 C 263.016571 651.5 263.016571 651.5 255.494186 660 C 251.356873 664.674988 245.344315 672.325012 242.13295 677 C 238.92157 681.674988 233.855179 689.775024 230.874298 695 C 227.893417 700.224976 223.566086 708.59729 221.257996 713.605225 C 218.949921 718.613037 215.873978 726.038025 214.422592 730.105225 C 212.971207 734.172363 210.853928 738.512512 209.717545 739.75 C 208.540344 741.031982 206.473877 742 204.914581 742 C 203.092194 742 201.321503 740.982361 199.614929 738.954224 C 198.205368 737.279053 196.118271 732.891541 194.976929 729.204224 C 193.835602 725.516907 192.184219 718.263794 191.30719 713.086182 C 190.128571 706.128296 189.871094 700.389038 190.320206 691.086182 C 190.663971 683.96582 191.790176 675.025879 192.913544 670.5 C 194.005692 666.099976 195.976227 659.799988 197.292526 656.5 C 198.608826 653.200012 201.168076 647.575012 202.979752 644 C 204.791443 640.424988 208.072113 634.799988 210.270142 631.5 C 212.46817 628.200012 216.280899 623.409424 218.742889 620.85437 C 222.147171 617.321289 223.43248 615.067139 224.109741 611.442017 C 224.599518 608.820313 226.114655 604.773682 227.476685 602.449585 C 228.83873 600.125427 233.470459 595.135986 237.769409 591.361938 C 242.068375 587.587891 247.028336 583.375 248.791534 582 C 251.997375 579.5 251.997375 579.5 249.088135 574.896667 C 247.488052 572.364868 245.397202 568.089844 244.441788 565.396667 C 243.486389 562.703491 242.49295 556.348877 242.234177 551.27533 C 241.861923 543.977173 242.220306 540.202637 243.950256 533.201294 C 246.136856 524.351929 246.136856 524.351929 242.006592 500.425964 C 239.73494 487.266663 236.098389 466.038452 233.925369 453.252197 C 231.75235 440.465881 228.167496 419.430542 225.959045 406.507019 C 223.75058 393.583496 219.063461 366.470032 215.543198 346.254883 C 212.022934 326.039673 207.432327 300.275024 205.341843 289 C 202.370758 272.975464 201.536499 265.98938 201.520477 257 C 201.5 245.5 201.5 245.5 205.738312 237 C 208.399124 231.663696 212.787262 225.267517 217.528 219.815308 C 221.681244 215.038757 228.774002 207.906433 233.289673 203.965759 C 237.805359 200.025146 246.675003 193.086853 253 188.547363 C 259.325012 184.007935 269 177.586792 274.5 174.278259 C 280 170.969727 291.024994 164.994202 299 160.999268 C 306.975006 157.004395 319.350006 151.356018 326.5 148.447388 C 333.649994 145.538696 345.540588 141.090393 352.923523 138.562195 C 360.306458 136.034058 372.006439 132.432495 378.923523 130.558716 C 385.840576 128.684875 398.024994 125.801575 406 124.151367 C 413.975006 122.501099 426.799988 120.23761 434.5 119.121338 C 442.200012 118.005066 455.101349 116.555298 463.169678 115.899597 C 471.510315 115.221802 484.453461 114.954895 493.169678 115.281067 C 502.201172 115.618958 510.894592 116.503967 514.328003 117.434937 C 517.533447 118.304077 522.708435 120.219116 525.828003 121.690552 C 529.036926 123.204102 533.888428 126.783447 537 129.932983 C 541.699829 134.690063 543.701721 138.081787 550.759949 153.2453 C 555.302917 163.005249 564.576782 182.805237 571.36853 197.2453 C 578.160278 211.685364 589.419861 235.756042 596.389771 250.735596 C 603.35968 265.71521 614.041748 288.665222 620.127686 301.735596 C 626.213684 314.80603 633.911499 331.682861 637.23407 339.239624 C 643.275024 352.979309 643.275024 352.979309 648.387512 355.365051 C 651.199402 356.677185 655.485168 359.479126 657.91156 361.591614 C 660.337891 363.704041 663.95874 367.963074 665.957886 371.056152 C 667.957031 374.149231 670.915833 380.576965 672.53302 385.339966 C 674.150208 390.102966 675.704346 393.994812 675.986694 393.988525 C 676.268982 393.982239 677.400024 392.086243 678.5 389.775269 C 679.599976 387.464294 682.34021 383.066406 684.589294 380.002197 C 686.83844 376.937988 690.663452 372.703857 693.089294 370.593018 C 695.515198 368.482178 699.974976 365.632019 703 364.259338 C 706.025024 362.886719 711.232483 361.536621 714.572205 361.259155 C 718.590515 360.925354 722.535828 361.304565 726.236084 362.380249 C 729.32489 363.278198 734.006165 365.727722 736.694519 367.852783 C 739.758118 370.274414 742.75592 373.941101 744.785583 377.749146 C 746.55896 381.076294 748.7453 387.055054 749.644165 391.035278 C 750.820984 396.246338 751.11261 400.683105 750.686035 406.885986 C 750.360291 411.623718 749.377258 418.200012 748.501648 421.5 C 747.625977 424.799988 745.254028 430.875 743.230591 435 C 740.461609 440.644897 737.44281 444.617371 731.025818 451.060303 C 725.708862 456.398743 720.333191 460.727051 716.74292 462.560303 C 713.566284 464.182373 710.703369 466.396423 710.355652 467.5 C 710.009094 468.599976 709.521057 470.044556 709.271057 470.710144 C 708.922241 471.639099 712.03125 471.774963 722.651245 471.294922 C 731.582153 470.891235 739.501282 471.102966 744.992981 471.892212 C 749.671814 472.564697 757.549988 474.462036 762.5 476.108521 C 767.450012 477.755066 774.424988 480.849792 778 482.985779 C 781.575012 485.121765 786.884155 488.9776 789.798096 491.554321 C 792.712036 494.130981 796.347961 498.430969 797.877869 501.109802 C 799.806091 504.485962 802.476074 507.160156 806.579773 509.8255 C 809.835876 511.940369 815.424988 516.786804 819 520.595459 C 822.575012 524.404053 827.17749 530.051758 829.227722 533.145996 C 831.277954 536.240234 835.003479 542.979736 837.506653 548.122681 C 840.009766 553.265747 843.343872 561.529541 844.915649 566.486816 C 846.487488 571.444092 848.612 579.775024 849.63678 585 C 851.0224 592.064758 851.5 598.994751 851.5 612.034424 C 851.5 624.049561 850.960571 632.705566 849.786194 639.534424 C 848.843567 645.015503 846.891785 653.099976 845.448914 657.5 C 844.005981 661.900024 841.127563 669.140625 839.052429 673.590332 C 836.977234 678.040039 832.669434 685.690063 829.479492 690.590332 C 825.810791 696.226196 819.604858 703.54187 812.589844 710.5 C 804.983154 718.045044 798.94165 723.015137 793.354736 726.323975 C 788.874817 728.977112 782.437317 732.267578 779.049133 733.636108 C 775.66095 735.0047 769.201355 737.062256 764.694397 738.208496 C 759.285706 739.584106 753.041138 740.32782 746.325378 740.39624 C 736.371277 740.497742 736.084106 740.43634 733.075378 737.562866 C 731.383911 735.94751 730 733.831177 730 732.859985 C 730 731.888733 730.52124 729.950073 731.158325 728.55188 C 731.804077 727.134583 735.624268 723.94812 739.791504 721.350769 C 743.90271 718.78833 749.84967 714.542114 753.006958 711.914551 C 756.164246 709.287048 761.459167 703.538574 764.773438 699.140137 C 768.487976 694.210632 771.966064 688.11792 773.84082 683.256531 C 775.51355 678.918945 777.414307 672.474243 778.064697 668.935059 C 778.715088 665.395752 779.287781 658.900024 779.337341 654.5 C 779.386902 650.099976 778.865845 643.170044 778.179443 639.099976 C 777.493103 635.030029 776.528564 630.980042 776.036072 630.099976 C 775.298462 628.781982 774.949341 629.028809 774.055481 631.5 C 773.458618 633.150024 771.244629 638.346313 769.135498 643.047485 C 767.026367 647.748535 762.345947 656.148071 758.734619 661.713135 C 755.123352 667.278198 749.45459 674.54541 746.137512 677.862549 C 742.820374 681.179626 738.664978 684.639038 736.903198 685.550049 C 735.141479 686.46106 732.14032 687.250671 730.233948 687.304688 C 727.954956 687.369263 726.313232 686.78125 725.440552 685.587769 C 724.71051 684.589478 723.214661 679.886292 722.116394 675.136353 C 721.018127 670.386353 719.212708 660.200012 718.104248 652.5 C 716.99585 644.799988 715.549683 631.974976 714.890503 624 C 714.175232 615.346497 713.93335 602.645508 714.290588 592.5 C 714.619873 583.150024 715.353577 573.700012 715.921143 571.5 C 716.488708 569.299988 717.227417 566.097534 717.562805 564.383301 C 718.172546 561.266602 718.172546 561.266602 704.836304 557.056091 C 697.501343 554.740295 689.176147 551.797852 686.335938 550.517456 C 683.495667 549.236938 680.286926 547.908447 679.205444 547.565186 C 677.414429 546.996765 677.281555 547.322876 677.715881 551.220581 C 677.978149 553.574219 677.741211 557.970093 677.189392 560.989136 C 676.186096 566.478271 676.186096 566.478271 680.20282 570.835815 C 682.411987 573.232544 685.705139 578.412476 687.520813 582.346741 C 689.336548 586.281006 691.53717 592.968506 692.411072 597.207886 C 693.342651 601.726807 694 609.843506 694 616.826843 C 694 623.377991 693.316101 632.65979 692.480225 637.453003 C 691.644348 642.246216 690.106934 649.167664 689.063782 652.833984 C 688.020569 656.500244 686.253113 662.089111 685.136108 665.253662 C 684.019104 668.418213 681.484192 674.092163 679.50293 677.862488 C 677.521667 681.632813 674.39978 686.356201 672.56543 688.358826 C 670.106934 691.042908 668.41748 692 666.138184 692 C 664.01123 692 662.611023 691.297729 661.652222 689.75 C 660.88562 688.512512 659.738281 683.598145 659.102722 678.829102 C 658.467102 674.06012 656.636169 665.510132 655.034058 659.829102 C 653.431885 654.148071 649.573303 643.200012 646.459473 635.5 C 643.345581 627.799988 639.494385 617.854492 637.901245 613.398804 C 636.308167 608.943115 634.536621 602.868164 633.9646 599.898804 C 633.392578 596.929443 632.905518 591.991333 632.882263 588.925171 C 632.839966 583.350342 632.839966 583.350342 626.446716 580.197693 C 622.616882 578.309082 617.031677 574.174683 612.517212 569.886353 C 608.242126 565.825439 603.114441 559.649292 600.667542 555.613831 C 598.295105 551.701233 595.54187 548.343384 594.549194 548.152039 C 593.011597 547.855591 592.831482 548.299988 593.333252 551.152039 C 593.657227 552.993408 594.23114 558.861511 594.608704 564.192261 C 595.295105 573.884521 595.295105 573.884521 600.397522 577.055298 C 603.203918 578.799194 608.653198 583.437683 612.507019 587.363037 C 616.360901 591.28833 621.740662 597.875 624.462036 602 C 627.183411 606.125 631.106812 613.419312 633.180664 618.209656 C 635.254517 623 637.861572 630.394592 638.974121 634.642151 C 640.08667 638.889709 641.736328 647.795227 642.640015 654.43219 C 643.8573 663.37262 644.132568 670.38623 643.702393 681.499695 C 643.382996 689.749878 642.392456 700.325012 641.50116 705 C 640.609863 709.674988 639.000183 716.497986 637.924133 720.16217 C 636.848022 723.826416 634.894043 729.251892 633.581909 732.218872 C 632.269775 735.185852 630.014893 739.017273 628.571045 740.733154 C 627.127258 742.449097 624.654724 744.136597 623.076538 744.483154 C 621.419373 744.847168 618.764771 744.510742 616.792908 743.686829 C 614.915039 742.902222 611.752563 740.360596 609.765137 738.038696 C 607.77771 735.716919 604.455872 730.595825 602.38324 726.658569 C 600.310608 722.721375 597.332275 716.575012 595.764709 713 C 592.914612 706.5 592.914612 706.5 593.361084 719 C 593.710327 728.776978 594.349365 733.133789 596.294556 739 C 597.662415 743.125 599.972961 749.05304 601.429077 752.173462 C 603.28418 756.148926 603.875854 758.646484 603.405945 760.518616 C 603.03717 761.988037 601.332458 764.045776 599.617737 765.091431 C 597.404175 766.441162 594.759888 766.96637 590.5 766.902283 Z"/>
    <path id="path1" fill="#ffb72c" fill-rule="evenodd" stroke="none" d="M 264.829926 568.435425 C 262.274536 569.950684 262.07309 569.908386 260.140564 567.451538 C 259.029968 566.039673 257.306519 562.772949 256.310638 560.192261 C 255.134674 557.144775 254.5 552.841309 254.5 547.915039 C 254.5 542.789185 255.225327 538.088318 256.737335 533.415039 C 257.967865 529.611816 261.146515 523.125 263.801025 519 C 266.455536 514.875 272.006256 507.450012 276.135956 502.5 C 280.265656 497.549988 288.562012 488.832336 294.572266 483.127441 C 300.58252 477.422546 312.25 467.690857 320.5 461.501526 C 328.75 455.312134 341.125 446.731689 348 442.433777 C 354.875 438.135864 366.097107 431.56842 372.938049 427.839539 C 379.778961 424.110657 390.803955 418.627808 397.438049 415.655518 C 404.072113 412.683228 416.25 407.544617 424.5 404.23645 C 432.75 400.928223 446.475006 395.949646 455 393.172913 C 463.524994 390.396179 476.575012 386.513 484 384.543701 C 491.424988 382.574402 502.225006 379.885559 508 378.568604 C 513.775024 377.251587 525.474976 375.021545 534 373.612976 C 542.525024 372.204468 555.575012 370.397644 563 369.5979 C 570.424988 368.798157 580.963379 367.838745 586.41864 367.465942 C 596.33728 366.788086 596.33728 366.788086 592.890198 370.815186 C 590.994263 373.030151 588.167053 377.512146 586.607422 380.775269 C 583.771729 386.708252 583.771729 386.708252 572.417053 387.35675 C 566.171936 387.71344 555.760803 388.692566 549.281189 389.532532 C 542.801514 390.372559 533.495728 391.746826 528.601685 392.586426 C 523.707581 393.426025 511.557587 396.15448 501.601654 398.649597 C 491.645752 401.144714 475.625 405.795471 466 408.984619 C 456.375 412.173828 441.75 417.461487 433.5 420.735046 C 425.25 424.008606 411.920868 429.710144 403.87973 433.405151 C 395.838562 437.100159 383.585083 443.215881 376.64975 446.995605 C 369.714417 450.775391 358.518555 457.397034 351.77002 461.710388 C 345.021515 466.023743 334.100006 473.568237 327.5 478.475952 C 320.899994 483.383667 309.828491 493.046753 302.896637 499.949524 C 295.964813 506.852295 288.396637 515.109741 286.078522 518.299561 C 283.760376 521.489258 280.126862 527.339233 278.004028 531.299561 C 275.881195 535.259766 273.414368 541.351807 272.522156 544.83728 C 271.629974 548.322876 270.993774 554.071106 271.108368 557.611267 C 271.280823 562.938599 270.987854 564.289551 269.408386 565.450073 C 268.358765 566.221313 266.298462 567.564697 264.829926 568.435425 Z M 244.78688 421.81781 C 244.394669 421.996155 243.857513 421.097595 243.593216 419.821045 C 243.328918 418.544495 241.729996 409.174988 240.04007 399 C 238.350128 388.825012 235.397491 371.612854 233.478638 360.750793 C 231.559799 349.888733 228.171143 330.763733 225.948303 318.250793 C 223.725479 305.737854 220.323502 287.174988 218.388367 277 C 216.097488 264.954529 214.999084 256.535767 215.240082 252.870178 C 215.514175 248.701477 216.504318 245.716797 219.055115 241.370178 C 221.007706 238.042908 227.914871 230.037842 235 222.890808 C 241.875 215.95575 251.774994 207.104065 257 203.220459 C 262.225006 199.336853 271.674988 192.94873 278 189.024719 C 284.325012 185.100708 296.024994 178.59137 304 174.559631 C 311.975006 170.527832 325.25 164.538574 333.5 161.250183 C 341.75 157.961731 355.517334 152.971619 364.094055 150.161072 C 372.670776 147.350464 386.857056 143.283936 395.619141 141.124268 C 404.381195 138.9646 418.513885 136.035889 427.025085 134.615967 C 435.536285 133.196045 449.683929 131.301086 458.464294 130.404907 C 469.366638 129.292175 479.513214 128.931213 490.464294 129.266541 C 500.825348 129.58374 508.62326 130.340027 512.5 131.403564 C 515.799988 132.308899 520.299988 134.276001 522.5 135.774841 C 526.031677 138.180908 527.871582 141.251465 538.214661 162 C 544.657715 174.924988 553.18573 192.474976 557.165771 201 C 561.145874 209.525024 567.010193 221.994934 570.197571 228.710938 C 573.384949 235.426941 578.854065 247.126953 582.351196 254.710938 C 585.848267 262.294922 591.996094 275.474976 596.012939 284 C 600.029846 292.525024 603.510559 300.241028 603.747803 301.146667 C 604.144104 302.659424 603.622803 302.676697 597.3396 301.359253 C 593.57782 300.570496 584.650024 299.271301 577.5 298.472168 C 570.349976 297.673096 558.200012 297.016724 550.5 297.013672 C 542.799988 297.01062 530.200012 297.473816 522.5 298.042969 C 514.799988 298.612122 502.200012 299.969971 494.5 301.060364 C 486.799988 302.150818 476.225006 303.898254 471 304.943481 C 465.774994 305.98877 454.975006 308.471741 447 310.461243 C 439.024994 312.450745 425.299988 316.353882 416.5 319.134888 C 407.700012 321.915833 393.075012 327.108765 384 330.674561 C 374.924988 334.240417 360.75 340.470093 352.5 344.518311 C 344.25 348.566528 331.875 355.123901 325 359.090332 C 318.125 363.056702 307.304657 369.781128 300.954834 374.033508 C 294.60498 378.285828 284.717926 385.530396 278.983643 390.132507 C 273.249329 394.734619 263.369659 403.673584 257.028809 409.996765 C 250.687973 416.320007 245.179092 421.639526 244.78688 421.81781 Z"/>
    <path id="path2" fill="#fb7a26" fill-rule="evenodd" stroke="none" d="M 258.282013 504.40387 C 255.776962 490.528381 252.533142 472.165039 249.457367 454.64447 L 243.865051 422.78894 L 255.682526 411.116089 C 262.182129 404.695984 272.899994 395.126587 279.5 389.85083 C 286.100006 384.575012 296.225006 377.113953 302 373.27063 C 307.774994 369.427368 318.125 363.041931 325 359.08075 C 331.875 355.119629 344.25 348.566528 352.5 344.518311 C 360.75 340.470093 374.924988 334.240417 384 330.674561 C 393.075012 327.108765 407.700012 321.915833 416.5 319.134888 C 425.299988 316.353882 439.024994 312.450745 447 310.461243 C 454.975006 308.471741 465.774994 305.98877 471 304.943481 C 476.225006 303.898254 486.799988 302.147583 494.5 301.053223 C 502.200012 299.958801 515.025024 298.603577 523 298.041626 C 530.974976 297.479614 543.444824 297.01532 550.710754 297.009888 C 557.976685 297.004456 568.551697 297.474121 574.210754 298.053589 C 579.869873 298.633057 588.325012 299.794067 593 300.633667 C 597.674988 301.473206 602.232117 302.215637 603.126953 302.283569 C 604.171509 302.362854 606.389404 306.003784 609.322266 312.453552 C 611.834839 317.979065 616.869873 328.732849 620.511169 336.350769 C 624.152527 343.968689 626.989624 350.288147 626.815918 350.393982 C 626.642151 350.499817 623.021973 351.579468 618.771057 352.793213 C 612.862793 354.480164 608.387146 355.000549 599.771057 355.002441 C 593.57196 355.003784 582.424988 355.45636 575 356.008179 C 567.575012 356.559998 556.325012 357.699646 550 358.54071 C 543.674988 359.381836 532.424988 361.210571 525 362.604553 C 517.575012 363.998596 505.200012 366.695068 497.5 368.596802 C 489.799988 370.498535 477.200012 373.865112 469.5 376.078064 C 461.799988 378.291016 449.491577 382.125061 442.147919 384.598083 C 434.80426 387.071106 423.329285 391.281799 416.647919 393.955139 C 409.966553 396.628479 398.875 401.364624 392 404.479858 C 385.125 407.595154 374.325012 412.887451 368 416.24054 C 361.674988 419.593628 351.219208 425.605225 344.764893 429.599609 C 338.310608 433.593994 327.899719 440.521118 321.629578 444.993225 C 315.359467 449.465332 305.790283 456.867249 300.364685 461.441895 C 294.939117 466.016479 285.535278 474.876038 279.467285 481.1297 C 273.399292 487.383362 266.150238 495.178345 263.358276 498.451904 L 258.282013 504.40387 Z"/>
    <path id="path3" fill="#cf6830" fill-rule="evenodd" stroke="none" d="M 586.317383 754.955261 C 584.767822 754.930664 580.349976 753.880615 576.5 752.621765 C 572.650024 751.362976 567.25 749.181152 564.5 747.773315 C 561.75 746.365479 556.799988 743.218201 553.5 740.779419 C 550.200012 738.340637 545.006958 733.643921 541.959839 730.342285 C 538.912781 727.040649 534.70874 721.761719 532.617615 718.611206 C 530.526428 715.460693 527.042419 709.099548 524.875427 704.475281 C 522.708435 699.851074 520.052551 692.615356 518.973389 688.395996 C 517.894287 684.176636 516.542908 675.757202 515.970398 669.686096 C 515.243347 661.976685 515.249023 655.781982 515.989014 649.145264 C 516.571777 643.918945 517.960632 636.010681 519.075317 631.571411 C 520.190002 627.132141 523.299927 619 525.986328 613.5 C 528.672668 608 533.202087 600.64801 536.051697 597.162231 C 538.901306 593.676453 543.912415 588.851868 547.187439 586.440918 C 550.462402 584.030029 555.494812 581.315796 558.370483 580.409302 C 561.950623 579.280762 565.979187 578.881348 571.148743 579.142395 C 577.634766 579.46991 579.947815 580.1427 587.565369 583.917358 C 594.439331 587.323547 598.138733 590.018066 604.024475 595.905518 C 608.200195 600.08252 613.545166 606.747192 615.902161 610.716064 C 618.259094 614.684814 621.539673 621.414185 623.192261 625.670166 C 624.844849 629.926025 627.293152 638.153809 628.632935 643.954102 C 630.318604 651.251953 631.259644 659.059082 631.688293 669.302551 C 632.064453 678.29248 631.861145 687.738831 631.170471 693.358765 C 630.545044 698.448242 628.944702 706.862061 627.614258 712.056152 C 626.283813 717.250244 624.218201 723.75 623.023987 726.5 C 620.852661 731.5 620.852661 731.5 617.566589 727.917725 C 615.759277 725.94751 612.20166 720.182739 609.660828 715.107178 C 607.119995 710.031494 603.466248 700.843506 601.541504 694.689392 C 599.61676 688.535217 597.53418 681.474976 596.913635 679 C 595.7854 674.5 595.7854 674.5 592.844482 678 C 591.22699 679.924988 588.572388 684.200012 586.945374 687.5 C 585.318298 690.799988 583.322815 696.650024 582.510925 700.5 C 581.699036 704.349976 581.026917 711.456482 581.017334 716.292114 C 581.007813 721.127808 581.684143 728.396484 582.520325 732.444702 C 583.356506 736.49292 584.867004 742.211426 585.877014 745.152527 C 586.886963 748.093628 588.033142 751.512512 588.424072 752.75 C 589.047791 754.724548 588.789856 754.994507 586.317383 754.955261 Z M 757.430847 727.470093 C 752.5 728.116882 752.5 728.116882 755.5 725.836426 C 757.150024 724.582275 761.115417 721.085815 764.312073 718.066528 C 767.508728 715.047363 772.332031 709.598877 775.030518 705.958862 C 777.729004 702.318787 781.50293 696.001465 783.417053 691.920288 C 785.331177 687.839111 787.707886 681.384399 788.698669 677.576538 C 790.093506 672.215332 790.5 666.795715 790.5 653.55835 C 790.5 636.945068 790.408203 636.185974 787.240173 626.601563 C 785.288513 620.697144 782.210388 614.082886 779.569885 610.11969 C 777.144104 606.478882 773.838806 602.240845 772.22467 600.701782 C 769.289978 597.903564 769.289978 597.903564 768.065857 605.701782 C 767.392639 609.990845 765.330811 618.064941 763.484009 623.644287 C 761.637268 629.223633 758.016541 637.998657 755.437988 643.144287 C 752.859436 648.289917 748.847717 655.448486 746.523071 659.052124 C 744.198364 662.655762 740.362488 667.605835 737.998901 670.052124 C 733.701416 674.5 733.701416 674.5 732.899902 671.5 C 732.459045 669.849976 730.971069 660.625 729.59314 651 C 728.215271 641.375 726.622803 628.099976 726.05426 621.5 C 725.485779 614.900024 725.018616 605 725.016235 599.5 C 725.013794 594 725.656616 585.224976 726.444824 580 C 727.232971 574.775024 729.291016 566.450012 731.018188 561.5 C 732.745422 556.549988 735.999634 549.349976 738.249878 545.5 C 740.500061 541.650024 745.584839 535.241211 749.549377 531.25824 C 754.874878 525.908081 758.683105 523.109863 764.128845 520.545532 C 768.182983 518.636536 774.350586 516.626709 777.834656 516.079224 C 781.845947 515.448975 785.965698 515.424561 789.067261 516.012756 C 791.761169 516.523682 795.737976 517.846008 797.904602 518.951294 C 800.071167 520.056641 804.505859 523.425537 807.759338 526.437683 C 811.012878 529.449829 815.58313 534.746094 817.915466 538.207153 C 820.247864 541.668213 823.870667 548.099976 825.966248 552.5 C 828.061768 556.900024 831.146118 564.549988 832.820251 569.5 C 834.494446 574.450012 836.588867 581.875 837.474548 586 C 838.360229 590.125 839.357605 600.179016 839.690979 608.342285 C 840.15918 619.807251 839.915039 625.529236 838.618164 633.488525 C 837.694763 639.15564 835.641785 647.930786 834.05603 652.988831 C 832.470276 658.046814 828.888245 666.755981 826.095886 672.34259 C 823.303589 677.929199 819.013428 685.159424 816.562134 688.409912 C 814.110901 691.6604 809.980103 696.781494 807.382568 699.790161 C 804.785034 702.798889 799.041626 707.943237 794.619446 711.222168 C 790.197205 714.500977 784.086243 718.440674 781.039551 719.977051 C 777.992798 721.513428 772.543884 723.682312 768.930847 724.796814 C 765.31781 725.911377 760.142822 727.114258 757.430847 727.470093 Z M 404.285919 693.512634 C 401.653656 693.747437 398.375 693.571045 397 693.120605 C 395.625 692.670166 392.475006 691.279541 390 690.030273 C 387.524994 688.781006 383.628174 686.241333 381.340393 684.386536 C 379.052612 682.531799 375.614044 678.873535 373.699158 676.257141 C 371.784241 673.640747 369.738007 669.751526 369.151947 667.614502 C 368.333954 664.631775 368.401825 663.005371 369.444092 660.614502 C 370.190826 658.901489 373.749878 653.816162 377.353088 649.313599 C 380.956299 644.811096 388.538391 636.308228 394.202179 630.418457 C 399.865997 624.528564 407.56311 617.228638 411.306915 614.196167 C 418.1138 608.682739 418.1138 608.682739 422.806915 609.767822 C 425.388092 610.364563 429.640594 611.771301 432.256897 612.893799 C 434.873169 614.016357 439.661194 616.732666 442.896942 618.930054 C 446.132721 621.12738 450.397949 624.815308 452.375275 627.125366 C 454.3526 629.435425 456.245819 632.793457 456.582428 634.587708 C 456.921387 636.394409 456.553253 640.037231 455.757324 642.752319 C 454.966919 645.448669 452.301361 650.769897 449.833832 654.577393 C 447.366333 658.384827 442.733093 664.576416 439.53775 668.336426 C 436.342407 672.096558 430.456055 677.964722 426.45697 681.376953 C 422.457886 684.789185 416.910248 688.819519 414.128876 690.333374 C 411.347504 691.847168 406.918182 693.277832 404.285919 693.512634 Z M 266.974548 639 C 264.040955 639 260.509705 638.061646 257.158356 636.391602 C 254.279449 634.957031 249.440063 631.513062 246.40416 628.738403 C 243.368256 625.963745 240.010361 621.980469 238.942169 619.886597 C 237.873978 617.792847 237 614.46936 237 612.501099 C 237 609.710449 237.825653 608.083008 240.75 605.109375 C 242.8125 603.012085 248.324997 598.0354 253 594.050049 C 257.674988 590.064636 265.549988 583.755737 270.5 580.030151 C 275.450012 576.304688 283.173767 570.928345 287.66391 568.082825 C 292.154053 565.237305 298.454071 561.981323 301.66391 560.84729 C 306.012695 559.310852 309.044678 558.906982 313.561218 559.26239 C 316.894867 559.52478 321.660095 560.640747 324.150604 561.742432 C 326.641113 562.844116 330.378052 565.444702 332.454926 567.521606 C 334.53183 569.598511 337.069214 573.143311 338.093597 575.398926 C 339.11795 577.654541 339.961731 580.849976 339.968658 582.5 C 339.975586 584.150024 338.683746 587.75 337.0979 590.5 C 335.512085 593.25 330.903809 598.668701 326.8573 602.541504 C 322.810791 606.414429 315.264893 612.666809 310.088654 616.435791 C 304.912384 620.204773 297.26239 625.314087 293.088654 627.789734 C 288.914886 630.265381 282.362701 633.800476 278.528198 635.645508 C 273.740692 637.948975 270.120911 639 266.974548 639 Z M 469.053772 620.258606 C 466.5 623.109497 466.5 623.109497 462.5 618.994995 C 460.299988 616.732056 456.05722 613.032227 453.071625 610.773193 C 450.086029 608.51416 444.807526 605.187744 441.341644 603.381226 C 437.875732 601.574707 431.829407 599.140442 427.905365 597.971802 C 420.770691 595.847046 420.770691 595.847046 421.188446 590.071655 C 421.528046 585.376709 422.600983 582.538269 426.92395 574.898193 C 429.848724 569.729187 434.54303 562.349976 437.355774 558.5 C 440.168518 554.650024 444.647278 549.171509 447.308563 546.3255 C 449.969849 543.479553 454.251648 540.151611 456.823639 538.930054 C 459.901245 537.468323 463.55127 536.673279 467.5 536.604492 C 470.799988 536.546997 474.70282 536.837402 476.172943 537.249695 C 477.643036 537.662048 480.250275 539.181152 481.966766 540.625488 C 483.683289 542.069824 486.053772 545.107483 487.234528 547.375793 C 488.869537 550.516724 489.47171 553.764893 489.760406 561 C 490.068329 568.717896 489.676056 572.298096 487.669159 580.085083 C 486.310486 585.356934 483.781067 593.210999 482.048187 597.538696 C 480.315308 601.866333 477.257233 608.1073 475.252502 611.40741 C 473.247772 614.707581 470.458344 618.690613 469.053772 620.258606 Z M 534.571655 581.081848 C 528.235779 587.008789 528.235779 587.008789 526.664124 584.610168 C 525.799744 583.290955 524.184692 579.516663 523.075073 576.222839 C 521.965454 572.929077 520.52771 567.025391 519.880005 563.103516 C 519.176331 558.842651 518.960632 552.457031 519.343933 547.23645 C 519.696777 542.431396 520.832092 535.738464 521.86676 532.363281 C 522.901489 528.988037 525.178345 524.147644 526.926514 521.606812 C 528.749207 518.957642 531.848999 516.097351 534.193665 514.901184 C 537.326599 513.302856 539.280701 512.964966 542.552734 513.455627 C 545.326355 513.871582 549.223572 515.78186 553.671997 518.905884 C 557.438965 521.55127 562.691895 526.352661 565.345215 529.575684 C 567.998596 532.798706 571.940491 538.416626 574.10498 542.060059 C 576.26947 545.703491 578.918274 551.182068 579.991211 554.234741 C 581.064148 557.287354 582.227112 561.567993 582.575562 563.747192 C 583.209167 567.709473 583.209167 567.709473 576.930054 566.759155 C 572.713989 566.121033 568.162109 566.170166 563.0755 566.908569 C 558.157776 567.622559 552.940186 569.262085 548.203735 571.581665 C 543.936401 573.671631 538.277344 577.615356 534.571655 581.081848 Z M 353.882629 582.518066 C 352.567352 583.001221 352.177917 582.203308 351.797668 578.246094 C 351.540497 575.569763 350.255829 571.229004 348.942841 568.599976 C 347.629852 565.971008 344.370758 561.600464 341.700409 558.887634 C 339.03006 556.174805 334.594971 552.814941 331.844666 551.421265 C 329.09436 550.027588 324.629181 548.625 321.922058 548.304321 C 319.214935 547.983765 317 547.370605 317 546.941772 C 317 546.513062 320.487488 543.016602 324.75 539.172119 C 329.012512 535.327515 335.283417 529.960083 338.685364 527.244507 C 342.087311 524.528931 348.837311 519.595337 353.685364 516.280945 C 358.533417 512.966553 366.153412 508.422119 370.618683 506.182251 C 375.083954 503.942383 381.482269 501.185059 384.837128 500.054871 C 388.192017 498.924683 393.216064 498 396.001709 498 C 399.403015 498 402.66452 498.809814 405.932068 500.465576 C 408.608124 501.821655 412.205902 504.634155 413.927094 506.715576 C 415.648285 508.796997 417.555817 512.156677 418.166046 514.181519 C 418.776276 516.20636 419.042084 519.934204 418.756775 522.465515 C 418.41568 525.491699 416.955414 528.999756 414.493011 532.708374 C 412.433258 535.810608 407.542206 541.543823 403.623993 545.448975 C 399.705811 549.354065 393.350006 555.071411 389.5 558.154175 C 385.649994 561.237 378.450012 566.591431 373.5 570.052979 C 368.549988 573.514587 362.475006 577.601685 360 579.135376 C 357.524994 580.669067 354.772186 582.191345 353.882629 582.518066 Z M 590.81958 534.572327 C 584.5 535.2146 584.5 535.2146 580.168335 528.65686 C 577.785889 525.050049 572.5495 518.976624 568.531921 515.160278 C 563.746521 510.614685 558.630859 506.938354 553.699219 504.500977 C 546.606934 500.995789 545.716309 500.80127 538.312256 501.140198 C 531.410339 501.456177 529.810059 501.912842 525.169983 504.890625 C 519.886597 508.28125 519.886597 508.28125 507.193298 505.493896 C 500.212006 503.960876 489.549988 501.409119 483.5 499.823364 C 477.450012 498.23761 467.675018 494.980347 461.777802 492.585083 C 455.880585 490.189758 445.921173 485.44281 439.645721 482.036255 C 433.3703 478.6297 426.792603 474.637695 425.028656 473.1651 C 421.821503 470.48761 421.821503 470.48761 429.701477 465.800232 C 434.035461 463.222229 445.438141 457.265137 455.040741 452.562378 C 464.643341 447.859558 478.125 441.72821 485 438.937195 C 491.875 436.146179 502 432.291931 507.5 430.372131 C 513 428.452332 522.450012 425.504761 528.5 423.821899 C 534.549988 422.139038 543.775024 419.899963 549 418.846069 C 554.224976 417.792236 561.650024 416.50885 565.5 415.994019 C 569.349976 415.479248 573.899109 414.858582 575.60907 414.614746 C 578.71814 414.171509 578.71814 414.171509 579.349426 422.335754 C 579.696655 426.826111 580.896484 433.797913 582.015686 437.828613 C 583.134888 441.859375 585.432251 447.894348 587.120972 451.239685 C 588.809692 454.584961 592.470581 459.731995 595.256226 462.677429 C 598.386414 465.987122 602.83429 469.267944 606.900513 471.266357 C 613.110107 474.318237 614.100037 474.5 624.512634 474.5 C 635.036743 474.5 635.866882 474.342773 642.522644 471.08844 C 647.263916 468.770203 651.624268 465.5271 656.12854 460.968689 C 660.95813 456.080994 663.993042 451.791321 667.311523 445.162354 C 671.866089 436.064209 671.866089 436.064209 673.06958 439.782104 C 673.731445 441.826965 675.364746 445.678101 676.699097 448.34021 C 678.033386 451.002319 680.896301 455.101929 683.061157 457.4505 C 685.225952 459.799011 689.055298 462.795959 691.570862 464.110291 C 696.06543 466.458618 696.134277 466.569214 695.550354 470.5 C 695.223511 472.700012 693.607849 477.271729 691.960022 480.659302 C 690.262512 484.149109 686.541626 489.240967 683.375061 492.407532 C 679.877502 495.90509 675.008362 499.369324 670.36261 501.665344 C 664.247009 504.687866 661.560547 505.414063 655.115051 505.78717 C 650.041199 506.080933 644.383789 505.651001 639.019836 504.564148 C 634.470642 503.642395 627.874084 501.806213 624.36084 500.483826 C 620.847595 499.161438 614.893555 496.087341 611.129639 493.652527 C 607.186462 491.101685 602.882324 487.270569 600.973572 484.612732 C 598.365967 480.98175 597.054016 480 594.809021 480 C 592.760559 480 591.645691 480.683472 590.851624 482.42627 C 590.243652 483.760681 590.018127 485.936035 590.350464 487.260315 C 590.682861 488.584595 592.348206 491.430298 594.05127 493.584045 C 595.754333 495.737854 600.546265 499.844849 604.700012 502.710754 C 608.85376 505.576721 615.232971 509.052002 618.876099 510.433716 C 622.519287 511.815369 629.325012 513.854858 634 514.965942 C 638.674988 516.076965 644.727478 516.989136 647.450012 516.992981 C 650.274414 516.996948 651.992065 517.368286 651.450012 517.857666 C 650.92749 518.329346 646.674988 520.320923 642 522.283447 C 637.325012 524.245972 629.224976 526.996399 624 528.395447 C 618.775024 529.794495 610.593811 531.612122 605.81958 532.43457 C 601.04541 533.25708 594.29541 534.219055 590.81958 534.572327 Z"/>
    <path id="path4" fill="#d98b1a" fill-rule="evenodd" stroke="none" d="M 377.510925 584.301147 C 372.842346 584.615356 371.921204 584.461182 373.333191 583.602112 C 374.329407 582.995972 378.824493 580.08252 383.322266 577.127808 C 387.820007 574.173035 392.850006 570.946472 394.5 569.957642 C 396.149994 568.96875 402.134216 567.395447 407.798218 566.461426 C 413.46225 565.527344 418.322113 564.98877 418.597931 565.264587 C 418.873718 565.540405 417.424194 569.151611 415.37674 573.289429 C 411.654083 580.812744 411.654083 580.812744 406.577026 581.401306 C 403.784668 581.724976 397.450012 582.419189 392.5 582.94397 C 387.549988 583.46875 380.804901 584.079529 377.510925 584.301147 Z"/>
    <path id="path5" fill="#ffffff" fill-rule="evenodd" stroke="none" d="M 625.5 462.62677 C 621.099976 462.783691 615.986572 462.402161 614.13678 461.778931 C 612.286987 461.15564 608.369385 458.448486 605.43103 455.762939 C 602.45166 453.040039 598.973083 448.584412 597.566956 445.690063 C 596.180115 442.83551 594.247742 437.426453 593.272705 433.669922 C 592.067993 429.028137 591.514832 423.261047 591.546204 415.669922 C 591.584412 406.447876 592.058533 403.009521 594.265259 395.952942 C 595.735291 391.252075 598.681824 384.708008 600.813049 381.410522 C 602.944336 378.113037 606.445801 374.033325 608.594055 372.344543 C 610.74231 370.655762 614.075012 368.458252 616 367.461182 C 618.226257 366.308044 622.511108 365.484253 627.774048 365.19751 C 634.134338 364.850952 637.127686 365.158936 640.715393 366.529114 C 643.28241 367.50946 647.363586 370.137512 649.784668 372.369141 C 652.20575 374.60083 655.530212 379.088318 657.172302 382.34137 C 658.814453 385.594421 660.789673 391.235901 661.561646 394.877991 C 662.333618 398.520081 662.973083 405.590515 662.982666 410.590027 C 662.993713 416.379211 662.292603 422.445984 661.051941 427.296936 C 659.98053 431.486145 657.843018 437.493103 656.301941 440.645691 C 654.760864 443.798279 651.291321 448.796204 648.591797 451.752197 C 645.892273 454.70813 641.392273 458.299988 638.591797 459.734009 C 634.598755 461.778748 631.773682 462.402954 625.5 462.62677 Z M 702.257935 454 C 699.797302 454 697.022156 453.141724 694.935059 451.735229 C 693.08667 450.489563 690.331299 447.677063 688.812012 445.485229 C 687.292725 443.293335 685.363464 438.817932 684.524841 435.539917 C 683.686157 432.261841 683.006653 426.411865 683.014771 422.539917 C 683.022888 418.667969 683.681946 412.733521 684.479309 409.352234 C 685.276672 405.970947 687.072266 400.795898 688.469482 397.852234 C 689.866699 394.908508 692.707458 390.25 694.782288 387.5 C 696.857117 384.75 700.654358 381.088501 703.220642 379.363342 C 705.786987 377.638184 710.108093 375.693787 712.82312 375.042419 C 716.611511 374.133606 718.776001 374.131409 722.129822 375.032959 C 724.93219 375.786316 727.830872 377.605469 730.209778 380.103699 C 732.728455 382.748779 734.574524 386.120361 735.959778 390.605164 C 737.081909 394.238159 738 399.886963 738 403.157959 C 738 406.428894 737.268188 412.343994 736.373779 416.302612 C 735.47937 420.261169 733.257446 426.47052 731.436157 430.101135 C 729.614929 433.731812 725.870361 439.168945 723.11499 442.183777 C 720.353882 445.204895 715.437927 449.086914 712.162659 450.832642 C 708.365845 452.856262 704.789368 454 702.257935 454 Z M 623.432007 445 C 625.449036 445 628.409485 444.32251 630.010742 443.494446 C 631.612061 442.666382 634.041321 440.078857 635.409119 437.744446 C 636.776917 435.409973 638.594421 430.817932 639.447998 427.539917 C 640.301575 424.261841 641 417.705994 641 412.971375 C 641 408.124634 640.325806 402.092651 639.457092 399.167419 C 638.608459 396.309814 636.549072 392.417114 634.880676 390.516907 C 633.062195 388.44574 630.54071 386.816833 628.585266 386.450012 C 626.640991 386.085266 623.92627 386.421814 621.86499 387.283081 C 619.962891 388.07782 617.234131 390.12146 615.801086 391.824524 C 614.368042 393.527588 612.364075 397.076294 611.347778 399.71051 C 609.919495 403.41272 609.5 407.224182 609.5 416.5 C 609.5 423.743164 610.038147 430.273987 610.857666 432.975281 C 611.638611 435.549561 613.818665 439.053955 615.98999 441.225281 C 618.983887 444.219177 620.523315 445 623.432007 445 Z M 706.184143 440.613159 C 707.735229 440.302979 710.279663 439.389587 711.838501 438.583496 C 713.397339 437.777405 715.785034 435.628845 717.144592 433.80896 C 718.50415 431.989014 720.595337 428.183899 721.791687 425.353149 C 722.988037 422.522339 724.265991 416.987793 724.631592 413.054077 C 725.047241 408.581787 724.836121 403.84552 724.068115 400.413635 C 723.392578 397.395081 721.863403 393.801941 720.669922 392.428894 C 719.446533 391.021423 716.973328 389.693604 715 389.384827 C 712.354797 388.970947 710.645203 389.413086 708 391.195251 C 706.075012 392.492126 703.104736 395.628967 701.399353 398.166016 C 699.69397 400.703064 697.556519 405.733582 696.649353 409.34491 C 695.742188 412.956299 695.002502 418.74353 695.005554 422.205505 C 695.008667 425.66748 695.471802 430.158569 696.034851 432.18573 C 696.597839 434.212891 698.477234 437.065247 700.211243 438.524292 C 702.585022 440.521729 704.060852 441.037842 706.184143 440.613159 Z"/>
    <path id="path6" fill="#d74f1f" fill-rule="evenodd" stroke="none" d="M 586.817383 754.934204 C 585.542847 754.897949 582.025024 754.207764 579 753.400391 C 575.974976 752.593018 570.622925 750.591064 567.106567 748.951599 C 563.590149 747.312134 557.943848 743.994751 554.559204 741.579529 C 551.174622 739.164307 545.726685 734.324585 542.452698 730.824585 C 539.178711 727.324585 534.770996 721.855896 532.657715 718.671997 C 530.544495 715.488037 527.042419 709.099548 524.875427 704.475281 C 522.708435 699.851074 520.095703 692.78418 519.069336 688.771118 C 518.042969 684.758057 516.873474 678.835693 516.47052 675.610291 C 515.982178 671.701538 516.082642 669.871704 516.77179 670.122925 C 517.340454 670.330322 520.0578 673.875 522.810303 678 C 525.562805 682.125 530.596436 688.650024 533.996155 692.5 C 537.395874 696.349976 543.400085 701.934326 547.338745 704.909668 C 551.277466 707.88501 557.284668 711.589417 560.68811 713.141602 C 564.091553 714.693848 569.041565 716.463135 571.68811 717.073364 C 574.334656 717.683716 577.512207 718.254272 578.749268 718.341492 C 580.593933 718.471497 580.998718 719.092285 580.999268 721.792114 C 580.999695 723.602844 581.684143 728.396484 582.520325 732.444702 C 583.356506 736.49292 584.867004 742.211426 585.877014 745.152527 C 586.886963 748.093628 588.033142 751.512512 588.424072 752.75 C 589.024109 754.649536 588.773865 754.989746 586.817383 754.934204 Z M 333.903778 743.865234 C 329.703247 746.230469 329.703247 746.230469 330.413513 738.365234 C 330.804169 734.039368 332.222717 727.222778 333.565826 723.217224 C 334.908966 719.21167 337.544067 712.911682 339.421631 709.217224 C 341.299164 705.522705 345.234894 699.064148 348.167694 694.864746 C 351.100464 690.665344 354.940063 685.612732 356.700165 683.636719 C 359.900299 680.043945 359.900299 680.043945 365.556305 685.973694 C 368.667114 689.234985 374.202026 693.814453 377.85614 696.150085 C 381.510254 698.485779 384.69928 700.544312 384.94281 700.724548 C 385.186371 700.904785 382.711365 703.768433 379.44281 707.088074 C 376.174255 710.407776 369.674988 716.396606 365 720.396545 C 360.325012 724.396545 352.360962 730.781128 347.302155 734.584595 C 342.243347 738.388062 336.214081 742.564331 333.903778 743.865234 Z M 757.5 727.373535 C 752.522339 728.006409 752.511169 728.001465 755 726.268433 C 756.375 725.310913 760.147339 722.046387 763.382935 719.013794 C 766.61853 715.981201 771.499695 710.575012 774.229858 707 C 776.960083 703.424988 780.673279 697.575012 782.481445 694 C 784.289612 690.424988 786.786377 684.349976 788.029846 680.5 C 789.905945 674.691162 790.3703 670.564697 790.758728 656.25 C 791.218506 639.30835 791.265991 639 793.417664 639 C 794.622559 639 797.60907 637.7099 800.054199 636.133057 C 802.49939 634.556274 806.611023 631.214233 809.191223 628.706238 C 811.771362 626.198242 815.47113 621.750854 817.412842 618.82312 C 819.354614 615.895386 822.040283 610.796814 823.381042 607.49292 C 824.721741 604.189087 826.529358 598.045349 827.397949 593.840271 C 828.266541 589.635193 829.274963 581.650879 829.638916 576.097351 C 830.002869 570.543823 830.670044 566 831.121521 566 C 831.573059 566 832.851563 569.037476 833.962769 572.75 C 835.073975 576.462524 836.674683 582.650024 837.519958 586.5 C 838.365173 590.349976 839.335815 600.179016 839.676941 608.342285 C 840.16156 619.940979 839.922607 625.482788 838.583557 633.700989 C 837.641113 639.484985 835.5401 648.330994 833.914673 653.358704 C 832.289246 658.386414 828.709167 667 825.958923 672.5 C 823.208679 678 818.966553 685.159424 816.531921 688.409912 C 814.09729 691.6604 809.980103 696.781494 807.382568 699.790161 C 804.785034 702.798889 799.041626 707.943237 794.619446 711.222168 C 790.197205 714.500977 784.086243 718.440674 781.039551 719.977051 C 777.992798 721.513428 772.575012 723.663086 769 724.75415 C 765.424988 725.845093 760.25 727.023865 757.5 727.373535 Z M 228.116028 629.284241 C 236.856628 637.682556 241.993561 641.72522 245.170517 643.686096 L 250.946793 647.251465 L 245.043228 653.694092 C 241.79628 657.23761 235.470078 665.393555 230.985031 671.81842 C 226.499969 678.243286 219.580963 690.025024 215.609451 698 C 211.637924 705.974976 207.702484 714.299988 206.864029 716.5 C 205.339539 720.5 205.339539 720.5 204.683258 717.5 C 204.322296 715.849976 203.504837 711.236755 202.866669 707.248352 C 202.215515 703.178833 201.950592 695.938354 202.262939 690.748352 C 202.569061 685.661743 203.789474 677.674988 204.974991 673 C 206.160492 668.325012 209.280914 660 211.909256 654.5 C 214.537598 649 219.259354 641.076416 222.402054 636.89209 L 228.116028 629.284241 Z"/>
    <path id="path7" fill="#903927" fill-rule="evenodd" stroke="none" d="M 672.035156 664.860474 C 670.343262 668.220825 670.343262 668.220825 668.602051 662.360474 C 667.644348 659.137207 665.594116 652.450012 664.046021 647.5 C 662.497864 642.549988 658.855957 632.875 655.952881 626 C 653.049805 619.125 649.41864 609.827942 647.883606 605.339844 C 646.348633 600.851807 644.802002 594.988342 644.446716 592.310059 C 643.800781 587.440369 643.800781 587.440369 650.578491 586.279419 C 654.306274 585.640869 660.255188 583.646973 663.79834 581.848572 C 670.240479 578.578735 670.240479 578.578735 672.22522 581.029785 C 673.316833 582.37793 675.292969 585.618042 676.616577 588.22998 C 677.940186 590.842041 679.692932 596.163208 680.511536 600.054932 C 681.3302 603.946655 682 611.810364 682 617.529907 C 682 623.793457 681.211426 631.99707 680.01709 638.158203 C 678.926514 643.78418 677.065063 651.337646 675.880615 654.943604 C 674.696167 658.549683 672.965698 663.012207 672.035156 664.860474 Z M 648 574.997681 C 645.068542 574.998169 641.276062 573.94635 637.119751 571.980103 C 633.610596 570.319946 628.885559 567.507813 626.619751 565.730835 C 624.353882 563.953857 621.220581 561.150024 619.65686 559.5 C 618.09314 557.849976 615.748596 554.849854 614.446777 552.83313 C 613.144958 550.816284 611.795227 548.032349 611.447449 546.646545 C 610.870361 544.347229 611.194763 544.028442 615.157532 543.001465 C 617.545898 542.382446 622.875 540.950134 627 539.818542 C 631.125 538.686951 638.283813 536.427002 642.908447 534.796387 C 650.188232 532.229614 651.636902 532.00293 653.700928 533.107544 C 655.012146 533.809326 658.038269 536.47168 660.425537 539.023865 C 663.947937 542.789551 664.898438 544.625977 665.467773 548.765686 C 665.870117 551.69104 665.681946 556.21521 665.026611 559.371826 C 664.398071 562.399475 662.888489 566.366943 661.671997 568.188354 C 660.455444 570.009766 657.894104 572.286804 655.980042 573.248413 C 654.06604 574.210083 650.474976 574.997192 648 574.997681 Z M 722.439026 548.623047 C 721.922546 548.76001 718.349976 548.019409 714.5 546.977295 C 710.650024 545.935181 704.349976 544.001465 700.5 542.680176 C 696.650024 541.358948 689.900024 538.790283 685.5 536.972107 C 681.099976 535.153931 675.218567 532.394165 672.430176 530.839355 C 669.641724 529.284546 666.313171 526.897766 665.033264 525.5354 C 662.706299 523.058472 662.706299 523.058472 665.103149 521.032593 C 666.421387 519.918457 671.336731 516.553589 676.026123 513.555298 C 680.92041 510.425842 687.741943 504.780396 692.040466 500.30188 C 696.158997 496.010864 700.647217 491.030945 702.014343 489.235474 C 704.197266 486.368591 705.505493 485.772583 712.755676 484.342041 C 719.001282 483.10968 724.11438 482.8526 733.755676 483.286194 C 740.765076 483.601379 749.200012 484.570435 752.5 485.439575 C 755.799988 486.308777 762.11676 488.789795 766.537292 490.952942 C 770.957764 493.11615 776.577576 496.47113 779.025757 498.408386 C 781.473877 500.345703 783.601196 502.303589 783.753113 502.759338 C 783.905029 503.215027 780.825378 504.137268 776.909424 504.808777 C 772.99353 505.480286 766.574402 507.375 762.644775 509.019287 C 758.715149 510.663513 752.448303 514.303345 748.718506 517.107666 C 744.988708 519.911987 739.858704 524.61377 737.318481 527.556091 C 734.778259 530.498413 730.602478 536.386108 728.039001 540.639893 C 725.475464 544.893616 722.955505 548.486084 722.439026 548.623047 Z M 498.353546 537.168335 C 497.705292 538.201904 496.452423 537.392456 493.144409 533.802734 C 490.74881 531.203125 486.712463 528.071045 484.174744 526.842529 C 480.591064 525.107727 477.72464 524.596741 471.338989 524.554443 C 463.11731 524.5 463.11731 524.5 466.308655 521.164917 C 468.063904 519.330566 471.339539 516.743042 473.58786 515.414917 C 476.443542 513.727905 479.184265 513 482.680573 513 C 485.959686 513 489.168793 513.784424 491.987366 515.274902 C 494.474487 516.590149 497.101074 519.015869 498.213531 521.024902 C 499.6922 523.695435 500.029968 525.809021 499.672424 530.153748 C 499.416504 533.263306 498.822998 536.419922 498.353546 537.168335 Z M 438.184906 529.850159 C 436.708191 529.767761 434.279388 529.514526 432.787567 529.287354 C 430.303802 528.90918 430.135193 528.605713 430.787567 525.687195 C 431.179413 523.934204 431.38623 520.287659 431.247162 517.583618 C 431.108093 514.879639 429.847076 510.154663 428.444885 507.083679 C 427.042725 504.012634 424.231506 499.788696 422.197723 497.697083 C 420.163971 495.605469 416.299805 492.480835 413.610687 490.753418 C 410.92157 489.026062 407.389343 487.417236 405.761322 487.178284 C 403.066254 486.782715 402.854889 486.475525 403.400604 483.746887 C 403.730286 482.098633 404 479.202515 404 477.311218 C 404 473.872437 404 473.872437 411.75 479.834473 C 416.012512 483.113586 422.955597 487.881653 427.179138 490.430115 C 431.402649 492.978638 438.827667 496.897705 443.679138 499.139221 C 448.530609 501.380737 454.886261 504.107605 457.802795 505.198975 C 460.71933 506.290283 462.957855 507.479492 462.777252 507.841614 C 462.59668 508.203735 459.197144 511.735229 455.222748 515.689453 C 451.248322 519.643677 447.555389 524.039185 447.016205 525.457397 C 446.47702 526.875549 444.873505 528.477783 443.45282 529.017944 C 442.032166 529.558105 439.661591 529.932617 438.184906 529.850159 Z M 422.801666 472 C 422.627655 472 419.563599 469.468201 415.992645 466.373779 C 412.421692 463.279297 408.149994 459.146973 406.5 457.190796 C 404.850006 455.234558 403.375885 453.152466 403.224213 452.563904 C 403.07254 451.975281 409.597534 448.166748 417.724213 444.100464 C 425.850891 440.03418 439.157715 433.838928 447.294922 430.333252 C 455.432159 426.827637 468.032135 421.921509 475.294922 419.430847 C 482.557709 416.940125 495.924988 412.907227 505 410.468811 C 514.075012 408.030396 528.474976 404.87738 537 403.462158 C 545.525024 402.046936 558.575012 400.626221 566 400.304993 C 579.5 399.721008 579.5 399.721008 579 407.044983 C 578.5 414.368896 578.5 414.368896 565.5 416.210083 C 558.349976 417.222717 546.978516 419.383545 540.230042 421.011841 C 533.481567 422.640198 521.55658 426.06427 513.730042 428.621033 C 505.903534 431.177734 493.511444 435.688354 486.192108 438.644653 C 478.872742 441.600952 466.722748 446.958984 459.192108 450.551392 C 451.661438 454.143799 440.231628 460.063293 433.792542 463.705872 C 427.353424 467.348389 422.317474 470.704712 422.601563 471.164307 C 422.88562 471.623962 422.975677 472 422.801666 472 Z"/>
    <path id="path8" fill="#eea51f" fill-rule="evenodd" stroke="none" d="M 580 387 C 577.481201 387.011292 575.774414 387.275818 574 387 C 573.089783 386.858521 575.334778 383.477417 576 382 C 576.665161 380.522583 578.870789 377.235291 580 376 C 581.333801 374.540894 582.979187 372.8125 584.490173 370.75 C 586.115295 368.531677 586.801636 368.177795 588 368 C 589.701843 367.747498 593.451111 367.338623 594 368 C 594.697632 368.840515 591.214966 373.652527 587.756653 378.843567 C 582.766968 386.333252 583.710938 386.983398 580 387 Z"/>
    <path id="path9" fill="#e25a1d" fill-rule="evenodd" stroke="none" d="M 258.282013 504.40387 C 255.782928 490.528381 252.80838 473.674988 250.059586 458 C 247.310776 442.325012 244.775711 427.652344 244.426102 425.394043 C 243.890671 421.935425 244.082886 421.203918 245.645218 420.754333 C 246.665344 420.460815 252 415.63269 257.5 410.025269 C 263 404.417847 270.715729 397.17749 274.646027 393.935669 L 281.792084 388.041443 L 283.867737 395.770691 C 285.009369 400.021851 289.105347 416.41333 292.96994 432.19635 L 299.996429 460.892639 L 284.158478 476.69635 C 275.447601 485.388367 266.061829 495.178345 263.301239 498.451904 L 258.282013 504.40387 Z M 557.5 357.537842 C 551.5 358.176025 551.5 358.176025 550.312134 353.338013 C 549.658875 350.677124 545.541077 337.924988 541.161499 325 C 536.781982 312.075012 532.875916 300.415771 532.481384 299.090637 C 531.764099 296.681335 531.764099 296.681335 553.132019 297.325867 C 564.884399 297.68042 579 298.659912 584.5 299.502625 C 590 300.345276 596.790771 301.307434 599.590637 301.640808 C 604.681213 302.246887 604.681213 302.246887 609.285889 312.373474 C 611.818481 317.943054 616.869873 328.732849 620.511169 336.350769 C 624.152527 343.968689 626.989624 350.288147 626.815918 350.393982 C 626.642151 350.499817 623.021973 351.579468 618.771057 352.793213 C 612.806824 354.496155 608.354614 355.005432 599.271057 355.023682 C 592.796997 355.036682 582.099976 355.464111 575.5 355.973511 C 568.900024 356.48291 560.799988 357.18689 557.5 357.537842 Z"/>
    <path id="path10" fill="#e69919" fill-rule="evenodd" stroke="none" d="M 244.78688 421.821045 C 244.394669 421.99762 243.857513 421.097595 243.593216 419.821045 C 243.328918 418.544495 241.729996 409.174988 240.04007 399 C 238.350128 388.825012 235.397491 371.612854 233.478638 360.750793 C 231.559799 349.888733 228.171143 330.763733 225.948303 318.250793 C 223.725479 305.737854 220.323502 287.174988 218.388367 277 C 216.097488 264.954529 214.999084 256.535767 215.240082 252.870178 C 215.515686 248.678406 216.490189 245.76123 219.055115 241.449951 C 220.949799 238.26532 226.324997 231.677917 231 226.81134 C 236.62915 220.951538 239.911346 218.23584 240.717926 218.770691 C 241.387772 219.214905 243.347534 225.635742 245.072952 233.039185 C 246.798355 240.442627 249.242432 251 250.504242 256.5 C 251.766037 262 254.655869 274.375 256.926086 284 C 259.19632 293.625 263.061096 309.938843 265.514496 320.252991 C 267.967896 330.567078 272.27243 348.567078 275.080139 360.252991 C 277.887848 371.938843 280.405518 383.075012 280.674957 385 C 281.142151 388.337646 280.824677 388.775085 273.832428 394.429932 C 269.799591 397.691345 261.774994 405.116394 256 410.929932 C 250.225006 416.743469 245.179092 421.64447 244.78688 421.821045 Z M 531.651184 296.5 C 517.064697 252.325012 509.974457 230.724976 506.484436 220 C 502.994446 209.275024 495.351135 185.875 489.499329 168 C 483.647522 150.125 478.597839 133.97876 478.277802 132.119446 C 477.695953 128.738953 477.695953 128.738953 492.097961 129.262634 C 500.661652 129.574036 508.932312 130.447754 512.5 131.417969 C 515.799988 132.31543 520.299988 134.276001 522.5 135.774841 C 526.031677 138.180908 527.871582 141.251465 538.214661 162 C 544.657715 174.924988 553.18573 192.474976 557.165771 201 C 561.145874 209.525024 567.010193 221.994934 570.197571 228.710938 C 573.384949 235.426941 578.854492 247.126953 582.352051 254.710938 C 585.849609 262.294922 592.173889 275.857056 596.405945 284.84906 C 600.638062 293.841003 603.965515 301.506287 603.800293 301.882996 C 603.635132 302.259766 599.450012 301.797302 594.5 300.855408 C 589.549988 299.913452 579.200012 298.630066 571.5 298.003418 C 563.799988 297.37677 551.684021 296.782104 544.575623 296.682007 L 531.651184 296.5 Z"/>
</svg>
