<?xml version="1.0" encoding="UTF-8" standalone="no"?>
<!-- Generated by Pixelmator Pro 3.7 -->

<svg
   width="1024"
   height="1024"
   viewBox="0 0 1024 1024"
   version="1.1"
   id="svg1"
   sodipodi:docname="netcrab-logo.svg"
   inkscape:version="1.4.2 (2aeb623e1d, 2025-05-12)"
   xmlns:inkscape="http://www.inkscape.org/namespaces/inkscape"
   xmlns:sodipodi="http://sodipodi.sourceforge.net/DTD/sodipodi-0.dtd"
   xmlns="http://www.w3.org/2000/svg"
   xmlns:svg="http://www.w3.org/2000/svg">
  <defs
     id="defs1" />
  <sodipodi:namedview
     id="namedview1"
     pagecolor="#ffffff"
     bordercolor="#000000"
     borderopacity="0.25"
     inkscape:showpageshadow="2"
     inkscape:pageopacity="0.0"
     inkscape:pagecheckerboard="0"
     inkscape:deskcolor="#d1d1d1"
     inkscape:zoom="0.78417969"
     inkscape:cx="511.36239"
     inkscape:cy="512"
     inkscape:window-width="1854"
     inkscape:window-height="1011"
     inkscape:window-x="66"
     inkscape:window-y="32"
     inkscape:window-maximized="1"
     inkscape:current-layer="svg1" />
  <path
     id="Shape"
     fill="#3c2119"
     fill-rule="evenodd"
     stroke="none"
     d="m 590.5,766.90228 c -3.29999,-0.0496 -8.9259,-0.67395 -12.50201,-1.38739 -3.57612,-0.7135 -9.20112,-2.40442 -12.5,-3.75769 -3.29889,-1.35327 -8.47297,-3.92694 -11.49799,-5.71924 -3.02502,-1.79236 -8.42499,-5.74914 -12,-8.79272 -3.57501,-3.04364 -8.11542,-7.38147 -10.08984,-9.63953 -1.97437,-2.25818 -5.57441,-6.81775 -8,-10.13256 -2.4256,-3.3147 -6.53644,-10.5528 -9.1352,-16.0846 -2.59881,-5.53174 -5.84085,-14.22711 -7.20462,-19.323 -1.36374,-5.09595 -3.01034,-13.83118 -3.65912,-19.41168 -0.6842,-5.88538 -0.90847,-14.28351 -0.53399,-19.9975 0.35507,-5.41809 1.34149,-13.22021 2.19204,-17.33801 0.85056,-4.1178 2.90805,-11.38648 4.57227,-16.15259 1.66418,-4.76623 4.53253,-11.43811 6.37415,-14.82654 3.34832,-6.16076 3.34832,-6.16076 -0.014,-12.5 -1.84931,-3.48657 -4.32575,-9.71423 -5.50312,-13.83923 -1.26101,-4.41797 -2.37612,-11.93787 -2.71356,-18.29919 -0.57287,-10.7992 -0.57287,-10.7992 -3.42892,-8.06287 -2.74774,2.63245 -2.85687,3.09894 -2.87769,12.29919 -0.0128,5.64258 -0.79766,13.04737 -1.91461,18.06287 -1.04114,4.67499 -3.32321,12.43542 -5.07129,17.24536 -1.74805,4.81 -5.61658,12.685 -8.59674,17.5 -2.98016,4.81506 -7.8551,11.00464 -10.83319,13.75464 -4.80954,4.44116 -5.52969,5.63586 -6.44339,10.68884 -0.56573,3.12891 -2.35934,8.30396 -3.98575,11.5 -1.62643,3.19617 -4.71505,8.51117 -6.86358,11.81116 -2.14856,3.29999 -6.58948,9.02136 -9.86869,12.71417 -3.27923,3.69281 -9.01095,9.35034 -12.73715,12.57233 -3.72623,3.22205 -9.21622,7.33777 -12.19998,9.14612 -2.98376,1.80835 -7.27176,3.92413 -9.5289,4.70178 -2.25714,0.77765 -6.87839,1.69153 -10.26947,2.03094 C 397.5,706.28235 397.5,706.28235 387.5,715.89117 c -5.5,5.28485 -13.375,12.58088 -17.5,16.21344 -4.125,3.63257 -11.93207,9.87525 -17.34906,13.87269 -5.41696,3.99743 -12.83481,9.01281 -16.4841,11.14538 -3.64932,2.13257 -7.79556,3.87732 -9.21387,3.87732 -1.57406,0 -3.72311,-1.19629 -5.51587,-3.07037 -2.87506,-3.00556 -2.93701,-3.29602 -2.93347,-13.75 0.003,-7.71479 0.62644,-13.17816 2.24707,-19.67963 1.23389,-4.95001 4.38227,-13.47107 6.99637,-18.93567 2.61411,-5.46466 7.17212,-13.33966 10.12891,-17.5 2.95675,-4.1604 8.09829,-10.65246 11.4256,-14.42682 4.66769,-5.29486 6.19552,-7.82379 6.68826,-11.07061 0.35125,-2.31446 1.82983,-6.33936 3.28573,-8.94434 1.45594,-2.60486 5.67801,-8.64807 9.38242,-13.42932 3.70441,-4.78131 13.73428,-15.63733 22.28863,-24.12464 8.55436,-8.48718 16.32966,-16.7926 17.27845,-18.45636 1.10428,-1.93646 1.35635,-3.25287 0.70044,-3.65826 -0.56354,-0.34827 -3.36484,-0.25195 -6.22507,0.21405 -2.86023,0.466 -12.40045,1.51727 -21.20044,2.33618 -8.79999,0.81891 -19.72522,1.49042 -24.27829,1.49237 -8.27826,0.003 -8.27826,0.003 -13.5,5.63147 -2.87195,3.09546 -9.4967,9.21802 -14.72171,13.60571 -5.22501,4.3877 -14.71368,11.44031 -21.08594,15.67249 -6.37225,4.23218 -15.83639,9.84723 -21.03143,12.4779 -7.65665,3.8772 -10.81104,4.90925 -16.65579,5.44947 C 263.01657,651.5 263.01657,651.5 255.49419,660 c -4.13732,4.67499 -10.14988,12.32501 -13.36124,17 -3.21138,4.67499 -8.27777,12.77502 -11.25865,18 -2.98088,5.22498 -7.30821,13.59729 -9.6163,18.60523 -2.30808,5.00781 -5.38402,12.43279 -6.83541,16.5 -1.45138,4.06713 -3.56866,8.40728 -4.70505,9.64477 -1.1772,1.28198 -3.24366,2.25 -4.80296,2.25 -1.82239,0 -3.59308,-1.01764 -5.29965,-3.04578 -1.40956,-1.67517 -3.49666,-6.06268 -4.638,-9.75 -1.14133,-3.68731 -2.79271,-10.94043 -3.66974,-16.11804 -1.17862,-6.95788 -1.4361,-12.69714 -0.98698,-22 0.34376,-7.12036 1.46997,-16.0603 2.59333,-20.58618 1.09215,-4.40002 3.06269,-10.70001 4.37899,-14 1.3163,-3.29999 3.87555,-8.92499 5.68722,-12.5 1.81169,-3.57501 5.09236,-9.20001 7.29039,-12.5 2.19803,-3.29999 6.01076,-8.09058 8.47275,-10.64563 3.40428,-3.53308 4.68959,-5.78723 5.36685,-9.41235 0.48978,-2.62171 2.00491,-6.66834 3.36694,-8.99244 1.36205,-2.32415 5.99378,-7.31359 10.29273,-11.08764 4.29896,-3.77405 9.25893,-7.98694 11.02212,-9.36194 3.20584,-2.5 3.20584,-2.5 0.2966,-7.10333 -1.60008,-2.5318 -3.69093,-6.80683 -4.64634,-9.5 -0.9554,-2.69318 -1.94884,-9.04779 -2.20761,-14.12134 -0.37226,-7.29816 -0.0139,-11.07269 1.71608,-18.07404 2.1866,-8.84936 2.1866,-8.84936 -1.94367,-32.77533 -2.27165,-13.1593 -5.9082,-34.38751 -8.08122,-47.17376 -2.17302,-12.78632 -5.75787,-33.82166 -7.96633,-46.74518 -2.20846,-12.92352 -6.89558,-40.03699 -10.41584,-60.25214 -3.52027,-20.21521 -8.11087,-45.97986 -10.20136,-57.25488 -2.97108,-16.02454 -3.80534,-23.01062 -3.82136,-32 -0.0205,-11.5 -0.0205,-11.5 4.21783,-20 2.66081,-5.3363 7.04895,-11.73248 11.78969,-17.18469 4.15324,-4.77655 11.246,-11.90888 15.76167,-15.84955 4.51569,-3.94061 13.38533,-10.87891 19.71033,-15.4184 6.32501,-4.53943 16,-10.96057 21.5,-14.2691 5.5,-3.30853 16.52499,-9.28406 24.5,-13.27899 7.97501,-3.99488 20.35001,-9.64325 27.5,-12.55188 7.14999,-2.90869 19.04059,-7.357 26.42352,-9.8852 7.38294,-2.52813 19.08292,-6.1297 26,-8.00347 6.91706,-1.87385 19.10147,-4.75714 27.07648,-6.40735 7.97501,-1.65027 20.79999,-3.91376 28.5,-5.03003 7.70001,-1.11627 20.60135,-2.56604 28.66968,-3.22174 8.34063,-0.6778 21.28378,-0.94471 30,-0.61853 9.03149,0.33789 17.72491,1.2229 21.15832,2.15387 3.20545,0.86914 8.38043,2.78418 11.5,4.25561 3.20893,1.51355 8.06043,5.0929 11.172,8.24243 4.69983,4.75708 6.70172,8.14881 13.75995,23.31232 4.54297,9.75995 13.81683,29.55994 20.60858,44 6.79175,14.44006 18.05133,38.51074 25.02124,53.4903 6.96991,14.97961 17.65198,37.92962 23.73792,51 6.08599,13.07043 13.78381,29.94726 17.10638,37.50402 6.04095,13.73969 6.04095,13.73969 11.15344,16.12543 2.81189,1.31213 7.09766,4.11408 9.52405,6.22656 2.42633,2.11243 6.04718,6.37146 8.04633,9.46454 1.99914,3.09308 4.95794,9.52081 6.57513,14.28382 1.61719,4.763 3.17133,8.65484 3.45367,8.64855 0.28229,-0.006 1.41333,-1.90228 2.51331,-4.21325 1.09998,-2.31098 3.84021,-6.70886 6.08929,-9.77307 2.24915,-3.06421 6.07416,-7.29834 8.5,-9.40918 2.42591,-2.11084 6.88569,-4.961 9.91071,-6.33368 3.02502,-1.37262 8.23248,-2.72272 11.57221,-3.00018 4.0183,-0.33381 7.96362,0.0454 11.66387,1.12109 3.08881,0.89795 7.77008,3.34747 10.45844,5.47253 3.0636,2.42163 6.0614,6.08832 8.09106,9.89637 1.77338,3.32714 3.95972,9.3059 4.85859,13.28613 1.17681,5.21106 1.46844,9.64782 1.04186,15.85071 -0.32574,4.73773 -1.30877,11.31402 -2.18438,14.61401 -0.87567,3.29999 -3.24762,9.375 -5.27106,13.5 -2.76898,5.6449 -5.78778,9.61737 -12.20477,16.0603 -5.31696,5.33844 -10.69263,9.66675 -14.2829,11.5 -3.17664,1.62207 -6.03955,3.83612 -6.38727,4.9397 -0.34656,1.09998 -0.83459,2.54456 -1.08459,3.21014 -0.34882,0.92896 2.76019,1.06482 13.38019,0.58478 8.9309,-0.40369 16.85003,-0.19195 22.34173,0.59729 4.67883,0.67249 12.55701,2.56983 17.50702,4.21631 4.95001,1.64655 11.92499,4.74127 15.5,6.87726 3.57501,2.13598 8.88415,5.99182 11.7981,8.56854 2.91394,2.57666 6.54986,6.87665 8.07977,9.55548 1.92822,3.37616 4.5982,6.05036 8.7019,8.7157 3.25611,2.11487 8.84522,6.9613 12.42023,10.76996 3.57501,3.80859 8.17749,9.4563 10.22772,12.55054 2.05023,3.09423 5.77576,9.83374 8.27893,14.97668 2.50312,5.14307 5.83722,13.40686 7.409,18.36414 1.57184,4.95727 3.69635,13.2882 4.72113,18.51318 1.38562,7.06476 1.86322,13.99475 1.86322,27.03442 0,12.01514 -0.53943,20.67115 -1.71381,27.5 -0.94262,5.48108 -2.8944,13.56556 -4.33728,17.96558 -1.44293,4.40002 -4.32135,11.64062 -6.39648,16.09033 -2.0752,4.44971 -6.383,12.09973 -9.57294,17 -3.6687,5.63587 -9.87463,12.95154 -16.88965,19.90967 -7.60669,7.54504 -13.64819,12.51514 -19.2351,15.82398 -4.47992,2.65313 -10.91742,5.9436 -14.30561,7.31213 -3.38818,1.36859 -9.84777,3.42615 -14.35473,4.57239 -5.40869,1.37561 -11.65326,2.11932 -18.36902,2.18774 -9.9541,0.1015 -10.24127,0.0401 -13.25,-2.83337 C 731.38391,735.94751 730,733.83118 730,732.85999 c 0,-0.97126 0.52124,-2.90992 1.15832,-4.30811 0.64576,-1.4173 4.46595,-4.60376 8.63318,-7.20111 4.11121,-2.56244 10.05817,-6.80866 13.21546,-9.43622 3.15729,-2.6275 8.45221,-8.37598 11.76648,-12.77441 3.71454,-4.92951 7.19262,-11.02222 9.06738,-15.88361 1.67273,-4.33759 3.57349,-10.78229 4.22388,-14.32147 0.65039,-3.53931 1.22308,-10.03504 1.27264,-14.43506 0.0496,-4.40002 -0.47149,-11.32996 -1.1579,-15.40002 -0.68634,-4.06995 -1.65088,-8.11994 -2.14337,-9 -0.73761,-1.318 -1.08673,-1.07117 -1.98059,1.40002 -0.59686,1.65002 -2.81085,6.84631 -4.91998,11.54749 -2.10913,4.70104 -6.78955,13.10058 -10.40088,18.66564 -3.61127,5.56507 -9.28003,12.83228 -12.59711,16.14942 -3.31714,3.31708 -7.47253,6.77649 -9.23431,7.6875 -1.76172,0.91101 -4.76288,1.70062 -6.66925,1.75464 -2.27899,0.0646 -3.92072,-0.52344 -4.7934,-1.71692 -0.73004,-0.99829 -2.22589,-5.70148 -3.32416,-10.45142 -1.09826,-4.75 -2.90368,-14.93634 -4.01214,-22.63635 -1.1084,-7.70001 -2.55457,-20.52502 -3.21375,-28.5 -0.71527,-8.6535 -0.95715,-21.35449 -0.59991,-31.5 0.32928,-9.34998 1.06299,-18.79999 1.63055,-21 0.56757,-2.20001 1.30628,-5.40247 1.64167,-7.1167 0.60974,-3.1167 0.60974,-3.1167 -12.72651,-7.32721 -7.33496,-2.3158 -15.66015,-5.25824 -18.50036,-6.53863 -2.84027,-1.28052 -6.04901,-2.60901 -7.1305,-2.95227 -1.79101,-0.56843 -1.92388,-0.24231 -1.48956,3.65539 0.26227,2.35364 0.0253,6.74951 -0.52649,9.76856 -1.00329,5.48913 -1.00329,5.48913 3.01343,9.84668 2.20917,2.39672 5.50232,7.57666 7.31799,11.51092 1.81574,3.93427 4.01636,10.62177 4.89026,14.86115 0.93158,4.51892 1.58893,12.63562 1.58893,19.61895 0,6.55115 -0.6839,15.83295 -1.51977,20.62616 -0.83588,4.79322 -2.3733,11.71466 -3.41645,15.38098 -1.04321,3.66626 -2.81067,9.25513 -3.92767,12.41968 -1.11701,3.16455 -3.65192,8.8385 -5.63318,12.60883 -1.98126,3.77032 -5.10315,8.49371 -6.9375,10.49634 -2.4585,2.68408 -4.14795,3.64117 -6.42725,3.64117 -2.12695,0 -3.52716,-0.70227 -4.48596,-2.25 -0.7666,-1.23749 -1.91394,-6.15185 -2.5495,-10.9209 -0.63562,-4.76898 -2.46655,-13.31897 -4.06866,-19 -1.60218,-5.68103 -5.46076,-16.62909 -8.57459,-24.3291 -3.11389,-7.70001 -6.96509,-17.64551 -8.55822,-22.1012 -1.59308,-4.45568 -3.36463,-10.53064 -3.93665,-13.5 -0.57202,-2.96936 -1.05908,-7.90747 -1.08234,-10.97363 -0.0423,-5.57483 -0.0423,-5.57483 -6.43554,-8.72748 -3.82984,-1.88861 -9.41504,-6.02301 -13.92951,-10.31134 -4.27508,-4.06091 -9.40277,-10.23706 -11.84967,-14.27252 -2.37243,-3.9126 -5.12567,-7.27045 -6.11835,-7.46179 -1.53759,-0.29645 -1.71771,0.14795 -1.21594,3 0.32398,1.84137 0.89789,7.70947 1.27545,13.04022 0.68641,9.69226 0.68641,9.69226 5.78882,12.86304 2.8064,1.74389 8.25568,6.38238 12.1095,10.30774 3.85388,3.92529 9.23364,10.51196 11.95502,14.63696 2.72137,4.125 6.64477,11.41931 8.71862,16.20966 2.07386,4.79034 4.68091,12.18493 5.79346,16.43249 1.11255,4.24756 2.76221,13.15308 3.66589,19.79004 1.21729,8.94043 1.49256,15.95404 1.06238,27.0675 -0.31939,8.25019 -1.30993,18.82532 -2.20123,23.50031 -0.8913,4.67499 -2.50098,11.49799 -3.57703,15.16217 -1.07611,3.66425 -3.03009,9.08972 -4.34222,12.0567 -1.31214,2.96698 -3.56702,6.7984 -5.01086,8.51428 -1.44379,1.71595 -3.91633,3.40345 -5.49451,3.75 -1.65717,0.36402 -4.31177,0.0276 -6.28363,-0.79632 -1.87787,-0.78461 -5.04035,-3.32623 -7.02777,-5.64813 -1.98743,-2.32178 -5.30927,-7.44288 -7.3819,-11.38013 -2.07263,-3.9372 -5.05097,-10.08356 -6.61853,-13.65857 -2.8501,-6.5 -2.8501,-6.5 -2.40363,6 0.34925,9.77698 0.98829,14.13379 2.93348,20 1.36785,4.125 3.6784,10.05304 5.13452,13.17346 1.8551,3.97547 2.44677,6.47302 1.97686,8.34516 -0.36877,1.46942 -2.07348,3.52716 -3.7882,4.57281 -2.21357,1.34973 -4.85785,1.87494 -9.11774,1.81085 z"
     sodipodi:nodetypes="ssssssssssssssssssssssssssssssssssssssssssssssssssssssssssssssssssssssssssssssssssssssssssssssssssssssssssssssssssssssssssssssssssssssssssssssssssssssssssssssssssssssssssssssssssssssssssssssssssssssssssssssssssssssssssssssss" />
  <path
     id="path1"
     fill="#ffb72c"
     fill-rule="evenodd"
     stroke="none"
     d="M 264.829926 568.435425 C 262.274536 569.950684 262.07309 569.908386 260.140564 567.451538 C 259.029968 566.039673 257.306519 562.772949 256.310638 560.192261 C 255.134674 557.144775 254.5 552.841309 254.5 547.915039 C 254.5 542.789185 255.225327 538.088318 256.737335 533.415039 C 257.967865 529.611816 261.146515 523.125 263.801025 519 C 266.455536 514.875 272.006256 507.450012 276.135956 502.5 C 280.265656 497.549988 288.562012 488.832336 294.572266 483.127441 C 300.58252 477.422546 312.25 467.690857 320.5 461.501526 C 328.75 455.312134 341.125 446.731689 348 442.433777 C 354.875 438.135864 366.097107 431.56842 372.938049 427.839539 C 379.778961 424.110657 390.803955 418.627808 397.438049 415.655518 C 404.072113 412.683228 416.25 407.544617 424.5 404.23645 C 432.75 400.928223 446.475006 395.949646 455 393.172913 C 463.524994 390.396179 476.575012 386.513 484 384.543701 C 491.424988 382.574402 502.225006 379.885559 508 378.568604 C 513.775024 377.251587 525.474976 375.021545 534 373.612976 C 542.525024 372.204468 555.575012 370.397644 563 369.5979 C 570.424988 368.798157 580.963379 367.838745 586.41864 367.465942 C 596.33728 366.788086 596.33728 366.788086 592.890198 370.815186 C 590.994263 373.030151 588.167053 377.512146 586.607422 380.775269 C 583.771729 386.708252 583.771729 386.708252 572.417053 387.35675 C 566.171936 387.71344 555.760803 388.692566 549.281189 389.532532 C 542.801514 390.372559 533.495728 391.746826 528.601685 392.586426 C 523.707581 393.426025 511.557587 396.15448 501.601654 398.649597 C 491.645752 401.144714 475.625 405.795471 466 408.984619 C 456.375 412.173828 441.75 417.461487 433.5 420.735046 C 425.25 424.008606 411.920868 429.710144 403.87973 433.405151 C 395.838562 437.100159 383.585083 443.215881 376.64975 446.995605 C 369.714417 450.775391 358.518555 457.397034 351.77002 461.710388 C 345.021515 466.023743 334.100006 473.568237 327.5 478.475952 C 320.899994 483.383667 309.828491 493.046753 302.896637 499.949524 C 295.964813 506.852295 288.396637 515.109741 286.078522 518.299561 C 283.760376 521.489258 280.126862 527.339233 278.004028 531.299561 C 275.881195 535.259766 273.414368 541.351807 272.522156 544.83728 C 271.629974 548.322876 270.993774 554.071106 271.108368 557.611267 C 271.280823 562.938599 270.987854 564.289551 269.408386 565.450073 C 268.358765 566.221313 266.298462 567.564697 264.829926 568.435425 Z M 244.78688 421.81781 C 244.394669 421.996155 243.857513 421.097595 243.593216 419.821045 C 243.328918 418.544495 241.729996 409.174988 240.04007 399 C 238.350128 388.825012 235.397491 371.612854 233.478638 360.750793 C 231.559799 349.888733 228.171143 330.763733 225.948303 318.250793 C 223.725479 305.737854 220.323502 287.174988 218.388367 277 C 216.097488 264.954529 214.999084 256.535767 215.240082 252.870178 C 215.514175 248.701477 216.504318 245.716797 219.055115 241.370178 C 221.007706 238.042908 227.914871 230.037842 235 222.890808 C 241.875 215.95575 251.774994 207.104065 257 203.220459 C 262.225006 199.336853 271.674988 192.94873 278 189.024719 C 284.325012 185.100708 296.024994 178.59137 304 174.559631 C 311.975006 170.527832 325.25 164.538574 333.5 161.250183 C 341.75 157.961731 355.517334 152.971619 364.094055 150.161072 C 372.670776 147.350464 386.857056 143.283936 395.619141 141.124268 C 404.381195 138.9646 418.513885 136.035889 427.025085 134.615967 C 435.536285 133.196045 449.683929 131.301086 458.464294 130.404907 C 469.366638 129.292175 479.513214 128.931213 490.464294 129.266541 C 500.825348 129.58374 508.62326 130.340027 512.5 131.403564 C 515.799988 132.308899 520.299988 134.276001 522.5 135.774841 C 526.031677 138.180908 527.871582 141.251465 538.214661 162 C 544.657715 174.924988 553.18573 192.474976 557.165771 201 C 561.145874 209.525024 567.010193 221.994934 570.197571 228.710938 C 573.384949 235.426941 578.854065 247.126953 582.351196 254.710938 C 585.848267 262.294922 591.996094 275.474976 596.012939 284 C 600.029846 292.525024 603.510559 300.241028 603.747803 301.146667 C 604.144104 302.659424 603.622803 302.676697 597.3396 301.359253 C 593.57782 300.570496 584.650024 299.271301 577.5 298.472168 C 570.349976 297.673096 558.200012 297.016724 550.5 297.013672 C 542.799988 297.01062 530.200012 297.473816 522.5 298.042969 C 514.799988 298.612122 502.200012 299.969971 494.5 301.060364 C 486.799988 302.150818 476.225006 303.898254 471 304.943481 C 465.774994 305.98877 454.975006 308.471741 447 310.461243 C 439.024994 312.450745 425.299988 316.353882 416.5 319.134888 C 407.700012 321.915833 393.075012 327.108765 384 330.674561 C 374.924988 334.240417 360.75 340.470093 352.5 344.518311 C 344.25 348.566528 331.875 355.123901 325 359.090332 C 318.125 363.056702 307.304657 369.781128 300.954834 374.033508 C 294.60498 378.285828 284.717926 385.530396 278.983643 390.132507 C 273.249329 394.734619 263.369659 403.673584 257.028809 409.996765 C 250.687973 416.320007 245.179092 421.639526 244.78688 421.81781 Z" />
  <path
     id="path2"
     fill="#fb7a26"
     fill-rule="evenodd"
     stroke="none"
     d="M 258.282013 504.40387 C 255.776962 490.528381 252.533142 472.165039 249.457367 454.64447 L 243.865051 422.78894 L 255.682526 411.116089 C 262.182129 404.695984 272.899994 395.126587 279.5 389.85083 C 286.100006 384.575012 296.225006 377.113953 302 373.27063 C 307.774994 369.427368 318.125 363.041931 325 359.08075 C 331.875 355.119629 344.25 348.566528 352.5 344.518311 C 360.75 340.470093 374.924988 334.240417 384 330.674561 C 393.075012 327.108765 407.700012 321.915833 416.5 319.134888 C 425.299988 316.353882 439.024994 312.450745 447 310.461243 C 454.975006 308.471741 465.774994 305.98877 471 304.943481 C 476.225006 303.898254 486.799988 302.147583 494.5 301.053223 C 502.200012 299.958801 515.025024 298.603577 523 298.041626 C 530.974976 297.479614 543.444824 297.01532 550.710754 297.009888 C 557.976685 297.004456 568.551697 297.474121 574.210754 298.053589 C 579.869873 298.633057 588.325012 299.794067 593 300.633667 C 597.674988 301.473206 602.232117 302.215637 603.126953 302.283569 C 604.171509 302.362854 606.389404 306.003784 609.322266 312.453552 C 611.834839 317.979065 616.869873 328.732849 620.511169 336.350769 C 624.152527 343.968689 626.989624 350.288147 626.815918 350.393982 C 626.642151 350.499817 623.021973 351.579468 618.771057 352.793213 C 612.862793 354.480164 608.387146 355.000549 599.771057 355.002441 C 593.57196 355.003784 582.424988 355.45636 575 356.008179 C 567.575012 356.559998 556.325012 357.699646 550 358.54071 C 543.674988 359.381836 532.424988 361.210571 525 362.604553 C 517.575012 363.998596 505.200012 366.695068 497.5 368.596802 C 489.799988 370.498535 477.200012 373.865112 469.5 376.078064 C 461.799988 378.291016 449.491577 382.125061 442.147919 384.598083 C 434.80426 387.071106 423.329285 391.281799 416.647919 393.955139 C 409.966553 396.628479 398.875 401.364624 392 404.479858 C 385.125 407.595154 374.325012 412.887451 368 416.24054 C 361.674988 419.593628 351.219208 425.605225 344.764893 429.599609 C 338.310608 433.593994 327.899719 440.521118 321.629578 444.993225 C 315.359467 449.465332 305.790283 456.867249 300.364685 461.441895 C 294.939117 466.016479 285.535278 474.876038 279.467285 481.1297 C 273.399292 487.383362 266.150238 495.178345 263.358276 498.451904 L 258.282013 504.40387 Z" />
  <path
     id="path3"
     fill="#cf6830"
     fill-rule="evenodd"
     stroke="none"
     d="M 586.317383 754.955261 C 584.767822 754.930664 580.349976 753.880615 576.5 752.621765 C 572.650024 751.362976 567.25 749.181152 564.5 747.773315 C 561.75 746.365479 556.799988 743.218201 553.5 740.779419 C 550.200012 738.340637 545.006958 733.643921 541.959839 730.342285 C 538.912781 727.040649 534.70874 721.761719 532.617615 718.611206 C 530.526428 715.460693 527.042419 709.099548 524.875427 704.475281 C 522.708435 699.851074 520.052551 692.615356 518.973389 688.395996 C 517.894287 684.176636 516.542908 675.757202 515.970398 669.686096 C 515.243347 661.976685 515.249023 655.781982 515.989014 649.145264 C 516.571777 643.918945 517.960632 636.010681 519.075317 631.571411 C 520.190002 627.132141 523.299927 619 525.986328 613.5 C 528.672668 608 533.202087 600.64801 536.051697 597.162231 C 538.901306 593.676453 543.912415 588.851868 547.187439 586.440918 C 550.462402 584.030029 555.494812 581.315796 558.370483 580.409302 C 561.950623 579.280762 565.979187 578.881348 571.148743 579.142395 C 577.634766 579.46991 579.947815 580.1427 587.565369 583.917358 C 594.439331 587.323547 598.138733 590.018066 604.024475 595.905518 C 608.200195 600.08252 613.545166 606.747192 615.902161 610.716064 C 618.259094 614.684814 621.539673 621.414185 623.192261 625.670166 C 624.844849 629.926025 627.293152 638.153809 628.632935 643.954102 C 630.318604 651.251953 631.259644 659.059082 631.688293 669.302551 C 632.064453 678.29248 631.861145 687.738831 631.170471 693.358765 C 630.545044 698.448242 628.944702 706.862061 627.614258 712.056152 C 626.283813 717.250244 624.218201 723.75 623.023987 726.5 C 620.852661 731.5 620.852661 731.5 617.566589 727.917725 C 615.759277 725.94751 612.20166 720.182739 609.660828 715.107178 C 607.119995 710.031494 603.466248 700.843506 601.541504 694.689392 C 599.61676 688.535217 597.53418 681.474976 596.913635 679 C 595.7854 674.5 595.7854 674.5 592.844482 678 C 591.22699 679.924988 588.572388 684.200012 586.945374 687.5 C 585.318298 690.799988 583.322815 696.650024 582.510925 700.5 C 581.699036 704.349976 581.026917 711.456482 581.017334 716.292114 C 581.007813 721.127808 581.684143 728.396484 582.520325 732.444702 C 583.356506 736.49292 584.867004 742.211426 585.877014 745.152527 C 586.886963 748.093628 588.033142 751.512512 588.424072 752.75 C 589.047791 754.724548 588.789856 754.994507 586.317383 754.955261 Z M 757.430847 727.470093 C 752.5 728.116882 752.5 728.116882 755.5 725.836426 C 757.150024 724.582275 761.115417 721.085815 764.312073 718.066528 C 767.508728 715.047363 772.332031 709.598877 775.030518 705.958862 C 777.729004 702.318787 781.50293 696.001465 783.417053 691.920288 C 785.331177 687.839111 787.707886 681.384399 788.698669 677.576538 C 790.093506 672.215332 790.5 666.795715 790.5 653.55835 C 790.5 636.945068 790.408203 636.185974 787.240173 626.601563 C 785.288513 620.697144 782.210388 614.082886 779.569885 610.11969 C 777.144104 606.478882 773.838806 602.240845 772.22467 600.701782 C 769.289978 597.903564 769.289978 597.903564 768.065857 605.701782 C 767.392639 609.990845 765.330811 618.064941 763.484009 623.644287 C 761.637268 629.223633 758.016541 637.998657 755.437988 643.144287 C 752.859436 648.289917 748.847717 655.448486 746.523071 659.052124 C 744.198364 662.655762 740.362488 667.605835 737.998901 670.052124 C 733.701416 674.5 733.701416 674.5 732.899902 671.5 C 732.459045 669.849976 730.971069 660.625 729.59314 651 C 728.215271 641.375 726.622803 628.099976 726.05426 621.5 C 725.485779 614.900024 725.018616 605 725.016235 599.5 C 725.013794 594 725.656616 585.224976 726.444824 580 C 727.232971 574.775024 729.291016 566.450012 731.018188 561.5 C 732.745422 556.549988 735.999634 549.349976 738.249878 545.5 C 740.500061 541.650024 745.584839 535.241211 749.549377 531.25824 C 754.874878 525.908081 758.683105 523.109863 764.128845 520.545532 C 768.182983 518.636536 774.350586 516.626709 777.834656 516.079224 C 781.845947 515.448975 785.965698 515.424561 789.067261 516.012756 C 791.761169 516.523682 795.737976 517.846008 797.904602 518.951294 C 800.071167 520.056641 804.505859 523.425537 807.759338 526.437683 C 811.012878 529.449829 815.58313 534.746094 817.915466 538.207153 C 820.247864 541.668213 823.870667 548.099976 825.966248 552.5 C 828.061768 556.900024 831.146118 564.549988 832.820251 569.5 C 834.494446 574.450012 836.588867 581.875 837.474548 586 C 838.360229 590.125 839.357605 600.179016 839.690979 608.342285 C 840.15918 619.807251 839.915039 625.529236 838.618164 633.488525 C 837.694763 639.15564 835.641785 647.930786 834.05603 652.988831 C 832.470276 658.046814 828.888245 666.755981 826.095886 672.34259 C 823.303589 677.929199 819.013428 685.159424 816.562134 688.409912 C 814.110901 691.6604 809.980103 696.781494 807.382568 699.790161 C 804.785034 702.798889 799.041626 707.943237 794.619446 711.222168 C 790.197205 714.500977 784.086243 718.440674 781.039551 719.977051 C 777.992798 721.513428 772.543884 723.682312 768.930847 724.796814 C 765.31781 725.911377 760.142822 727.114258 757.430847 727.470093 Z M 404.285919 693.512634 C 401.653656 693.747437 398.375 693.571045 397 693.120605 C 395.625 692.670166 392.475006 691.279541 390 690.030273 C 387.524994 688.781006 383.628174 686.241333 381.340393 684.386536 C 379.052612 682.531799 375.614044 678.873535 373.699158 676.257141 C 371.784241 673.640747 369.738007 669.751526 369.151947 667.614502 C 368.333954 664.631775 368.401825 663.005371 369.444092 660.614502 C 370.190826 658.901489 373.749878 653.816162 377.353088 649.313599 C 380.956299 644.811096 388.538391 636.308228 394.202179 630.418457 C 399.865997 624.528564 407.56311 617.228638 411.306915 614.196167 C 418.1138 608.682739 418.1138 608.682739 422.806915 609.767822 C 425.388092 610.364563 429.640594 611.771301 432.256897 612.893799 C 434.873169 614.016357 439.661194 616.732666 442.896942 618.930054 C 446.132721 621.12738 450.397949 624.815308 452.375275 627.125366 C 454.3526 629.435425 456.245819 632.793457 456.582428 634.587708 C 456.921387 636.394409 456.553253 640.037231 455.757324 642.752319 C 454.966919 645.448669 452.301361 650.769897 449.833832 654.577393 C 447.366333 658.384827 442.733093 664.576416 439.53775 668.336426 C 436.342407 672.096558 430.456055 677.964722 426.45697 681.376953 C 422.457886 684.789185 416.910248 688.819519 414.128876 690.333374 C 411.347504 691.847168 406.918182 693.277832 404.285919 693.512634 Z M 266.974548 639 C 264.040955 639 260.509705 638.061646 257.158356 636.391602 C 254.279449 634.957031 249.440063 631.513062 246.40416 628.738403 C 243.368256 625.963745 240.010361 621.980469 238.942169 619.886597 C 237.873978 617.792847 237 614.46936 237 612.501099 C 237 609.710449 237.825653 608.083008 240.75 605.109375 C 242.8125 603.012085 248.324997 598.0354 253 594.050049 C 257.674988 590.064636 265.549988 583.755737 270.5 580.030151 C 275.450012 576.304688 283.173767 570.928345 287.66391 568.082825 C 292.154053 565.237305 298.454071 561.981323 301.66391 560.84729 C 306.012695 559.310852 309.044678 558.906982 313.561218 559.26239 C 316.894867 559.52478 321.660095 560.640747 324.150604 561.742432 C 326.641113 562.844116 330.378052 565.444702 332.454926 567.521606 C 334.53183 569.598511 337.069214 573.143311 338.093597 575.398926 C 339.11795 577.654541 339.961731 580.849976 339.968658 582.5 C 339.975586 584.150024 338.683746 587.75 337.0979 590.5 C 335.512085 593.25 330.903809 598.668701 326.8573 602.541504 C 322.810791 606.414429 315.264893 612.666809 310.088654 616.435791 C 304.912384 620.204773 297.26239 625.314087 293.088654 627.789734 C 288.914886 630.265381 282.362701 633.800476 278.528198 635.645508 C 273.740692 637.948975 270.120911 639 266.974548 639 Z M 469.053772 620.258606 C 466.5 623.109497 466.5 623.109497 462.5 618.994995 C 460.299988 616.732056 456.05722 613.032227 453.071625 610.773193 C 450.086029 608.51416 444.807526 605.187744 441.341644 603.381226 C 437.875732 601.574707 431.829407 599.140442 427.905365 597.971802 C 420.770691 595.847046 420.770691 595.847046 421.188446 590.071655 C 421.528046 585.376709 422.600983 582.538269 426.92395 574.898193 C 429.848724 569.729187 434.54303 562.349976 437.355774 558.5 C 440.168518 554.650024 444.647278 549.171509 447.308563 546.3255 C 449.969849 543.479553 454.251648 540.151611 456.823639 538.930054 C 459.901245 537.468323 463.55127 536.673279 467.5 536.604492 C 470.799988 536.546997 474.70282 536.837402 476.172943 537.249695 C 477.643036 537.662048 480.250275 539.181152 481.966766 540.625488 C 483.683289 542.069824 486.053772 545.107483 487.234528 547.375793 C 488.869537 550.516724 489.47171 553.764893 489.760406 561 C 490.068329 568.717896 489.676056 572.298096 487.669159 580.085083 C 486.310486 585.356934 483.781067 593.210999 482.048187 597.538696 C 480.315308 601.866333 477.257233 608.1073 475.252502 611.40741 C 473.247772 614.707581 470.458344 618.690613 469.053772 620.258606 Z M 534.571655 581.081848 C 528.235779 587.008789 528.235779 587.008789 526.664124 584.610168 C 525.799744 583.290955 524.184692 579.516663 523.075073 576.222839 C 521.965454 572.929077 520.52771 567.025391 519.880005 563.103516 C 519.176331 558.842651 518.960632 552.457031 519.343933 547.23645 C 519.696777 542.431396 520.832092 535.738464 521.86676 532.363281 C 522.901489 528.988037 525.178345 524.147644 526.926514 521.606812 C 528.749207 518.957642 531.848999 516.097351 534.193665 514.901184 C 537.326599 513.302856 539.280701 512.964966 542.552734 513.455627 C 545.326355 513.871582 549.223572 515.78186 553.671997 518.905884 C 557.438965 521.55127 562.691895 526.352661 565.345215 529.575684 C 567.998596 532.798706 571.940491 538.416626 574.10498 542.060059 C 576.26947 545.703491 578.918274 551.182068 579.991211 554.234741 C 581.064148 557.287354 582.227112 561.567993 582.575562 563.747192 C 583.209167 567.709473 583.209167 567.709473 576.930054 566.759155 C 572.713989 566.121033 568.162109 566.170166 563.0755 566.908569 C 558.157776 567.622559 552.940186 569.262085 548.203735 571.581665 C 543.936401 573.671631 538.277344 577.615356 534.571655 581.081848 Z M 353.882629 582.518066 C 352.567352 583.001221 352.177917 582.203308 351.797668 578.246094 C 351.540497 575.569763 350.255829 571.229004 348.942841 568.599976 C 347.629852 565.971008 344.370758 561.600464 341.700409 558.887634 C 339.03006 556.174805 334.594971 552.814941 331.844666 551.421265 C 329.09436 550.027588 324.629181 548.625 321.922058 548.304321 C 319.214935 547.983765 317 547.370605 317 546.941772 C 317 546.513062 320.487488 543.016602 324.75 539.172119 C 329.012512 535.327515 335.283417 529.960083 338.685364 527.244507 C 342.087311 524.528931 348.837311 519.595337 353.685364 516.280945 C 358.533417 512.966553 366.153412 508.422119 370.618683 506.182251 C 375.083954 503.942383 381.482269 501.185059 384.837128 500.054871 C 388.192017 498.924683 393.216064 498 396.001709 498 C 399.403015 498 402.66452 498.809814 405.932068 500.465576 C 408.608124 501.821655 412.205902 504.634155 413.927094 506.715576 C 415.648285 508.796997 417.555817 512.156677 418.166046 514.181519 C 418.776276 516.20636 419.042084 519.934204 418.756775 522.465515 C 418.41568 525.491699 416.955414 528.999756 414.493011 532.708374 C 412.433258 535.810608 407.542206 541.543823 403.623993 545.448975 C 399.705811 549.354065 393.350006 555.071411 389.5 558.154175 C 385.649994 561.237 378.450012 566.591431 373.5 570.052979 C 368.549988 573.514587 362.475006 577.601685 360 579.135376 C 357.524994 580.669067 354.772186 582.191345 353.882629 582.518066 Z M 590.81958 534.572327 C 584.5 535.2146 584.5 535.2146 580.168335 528.65686 C 577.785889 525.050049 572.5495 518.976624 568.531921 515.160278 C 563.746521 510.614685 558.630859 506.938354 553.699219 504.500977 C 546.606934 500.995789 545.716309 500.80127 538.312256 501.140198 C 531.410339 501.456177 529.810059 501.912842 525.169983 504.890625 C 519.886597 508.28125 519.886597 508.28125 507.193298 505.493896 C 500.212006 503.960876 489.549988 501.409119 483.5 499.823364 C 477.450012 498.23761 467.675018 494.980347 461.777802 492.585083 C 455.880585 490.189758 445.921173 485.44281 439.645721 482.036255 C 433.3703 478.6297 426.792603 474.637695 425.028656 473.1651 C 421.821503 470.48761 421.821503 470.48761 429.701477 465.800232 C 434.035461 463.222229 445.438141 457.265137 455.040741 452.562378 C 464.643341 447.859558 478.125 441.72821 485 438.937195 C 491.875 436.146179 502 432.291931 507.5 430.372131 C 513 428.452332 522.450012 425.504761 528.5 423.821899 C 534.549988 422.139038 543.775024 419.899963 549 418.846069 C 554.224976 417.792236 561.650024 416.50885 565.5 415.994019 C 569.349976 415.479248 573.899109 414.858582 575.60907 414.614746 C 578.71814 414.171509 578.71814 414.171509 579.349426 422.335754 C 579.696655 426.826111 580.896484 433.797913 582.015686 437.828613 C 583.134888 441.859375 585.432251 447.894348 587.120972 451.239685 C 588.809692 454.584961 592.470581 459.731995 595.256226 462.677429 C 598.386414 465.987122 602.83429 469.267944 606.900513 471.266357 C 613.110107 474.318237 614.100037 474.5 624.512634 474.5 C 635.036743 474.5 635.866882 474.342773 642.522644 471.08844 C 647.263916 468.770203 651.624268 465.5271 656.12854 460.968689 C 660.95813 456.080994 663.993042 451.791321 667.311523 445.162354 C 671.866089 436.064209 671.866089 436.064209 673.06958 439.782104 C 673.731445 441.826965 675.364746 445.678101 676.699097 448.34021 C 678.033386 451.002319 680.896301 455.101929 683.061157 457.4505 C 685.225952 459.799011 689.055298 462.795959 691.570862 464.110291 C 696.06543 466.458618 696.134277 466.569214 695.550354 470.5 C 695.223511 472.700012 693.607849 477.271729 691.960022 480.659302 C 690.262512 484.149109 686.541626 489.240967 683.375061 492.407532 C 679.877502 495.90509 675.008362 499.369324 670.36261 501.665344 C 664.247009 504.687866 661.560547 505.414063 655.115051 505.78717 C 650.041199 506.080933 644.383789 505.651001 639.019836 504.564148 C 634.470642 503.642395 627.874084 501.806213 624.36084 500.483826 C 620.847595 499.161438 614.893555 496.087341 611.129639 493.652527 C 607.186462 491.101685 602.882324 487.270569 600.973572 484.612732 C 598.365967 480.98175 597.054016 480 594.809021 480 C 592.760559 480 591.645691 480.683472 590.851624 482.42627 C 590.243652 483.760681 590.018127 485.936035 590.350464 487.260315 C 590.682861 488.584595 592.348206 491.430298 594.05127 493.584045 C 595.754333 495.737854 600.546265 499.844849 604.700012 502.710754 C 608.85376 505.576721 615.232971 509.052002 618.876099 510.433716 C 622.519287 511.815369 629.325012 513.854858 634 514.965942 C 638.674988 516.076965 644.727478 516.989136 647.450012 516.992981 C 650.274414 516.996948 651.992065 517.368286 651.450012 517.857666 C 650.92749 518.329346 646.674988 520.320923 642 522.283447 C 637.325012 524.245972 629.224976 526.996399 624 528.395447 C 618.775024 529.794495 610.593811 531.612122 605.81958 532.43457 C 601.04541 533.25708 594.29541 534.219055 590.81958 534.572327 Z" />
  <path
     id="path4"
     fill="#d98b1a"
     fill-rule="evenodd"
     stroke="none"
     d="M 377.510925 584.301147 C 372.842346 584.615356 371.921204 584.461182 373.333191 583.602112 C 374.329407 582.995972 378.824493 580.08252 383.322266 577.127808 C 387.820007 574.173035 392.850006 570.946472 394.5 569.957642 C 396.149994 568.96875 402.134216 567.395447 407.798218 566.461426 C 413.46225 565.527344 418.322113 564.98877 418.597931 565.264587 C 418.873718 565.540405 417.424194 569.151611 415.37674 573.289429 C 411.654083 580.812744 411.654083 580.812744 406.577026 581.401306 C 403.784668 581.724976 397.450012 582.419189 392.5 582.94397 C 387.549988 583.46875 380.804901 584.079529 377.510925 584.301147 Z" />
  <path
     id="path5"
     fill="#ffffff"
     fill-rule="evenodd"
     stroke="none"
     d="M 625.5 462.62677 C 621.099976 462.783691 615.986572 462.402161 614.13678 461.778931 C 612.286987 461.15564 608.369385 458.448486 605.43103 455.762939 C 602.45166 453.040039 598.973083 448.584412 597.566956 445.690063 C 596.180115 442.83551 594.247742 437.426453 593.272705 433.669922 C 592.067993 429.028137 591.514832 423.261047 591.546204 415.669922 C 591.584412 406.447876 592.058533 403.009521 594.265259 395.952942 C 595.735291 391.252075 598.681824 384.708008 600.813049 381.410522 C 602.944336 378.113037 606.445801 374.033325 608.594055 372.344543 C 610.74231 370.655762 614.075012 368.458252 616 367.461182 C 618.226257 366.308044 622.511108 365.484253 627.774048 365.19751 C 634.134338 364.850952 637.127686 365.158936 640.715393 366.529114 C 643.28241 367.50946 647.363586 370.137512 649.784668 372.369141 C 652.20575 374.60083 655.530212 379.088318 657.172302 382.34137 C 658.814453 385.594421 660.789673 391.235901 661.561646 394.877991 C 662.333618 398.520081 662.973083 405.590515 662.982666 410.590027 C 662.993713 416.379211 662.292603 422.445984 661.051941 427.296936 C 659.98053 431.486145 657.843018 437.493103 656.301941 440.645691 C 654.760864 443.798279 651.291321 448.796204 648.591797 451.752197 C 645.892273 454.70813 641.392273 458.299988 638.591797 459.734009 C 634.598755 461.778748 631.773682 462.402954 625.5 462.62677 Z M 702.257935 454 C 699.797302 454 697.022156 453.141724 694.935059 451.735229 C 693.08667 450.489563 690.331299 447.677063 688.812012 445.485229 C 687.292725 443.293335 685.363464 438.817932 684.524841 435.539917 C 683.686157 432.261841 683.006653 426.411865 683.014771 422.539917 C 683.022888 418.667969 683.681946 412.733521 684.479309 409.352234 C 685.276672 405.970947 687.072266 400.795898 688.469482 397.852234 C 689.866699 394.908508 692.707458 390.25 694.782288 387.5 C 696.857117 384.75 700.654358 381.088501 703.220642 379.363342 C 705.786987 377.638184 710.108093 375.693787 712.82312 375.042419 C 716.611511 374.133606 718.776001 374.131409 722.129822 375.032959 C 724.93219 375.786316 727.830872 377.605469 730.209778 380.103699 C 732.728455 382.748779 734.574524 386.120361 735.959778 390.605164 C 737.081909 394.238159 738 399.886963 738 403.157959 C 738 406.428894 737.268188 412.343994 736.373779 416.302612 C 735.47937 420.261169 733.257446 426.47052 731.436157 430.101135 C 729.614929 433.731812 725.870361 439.168945 723.11499 442.183777 C 720.353882 445.204895 715.437927 449.086914 712.162659 450.832642 C 708.365845 452.856262 704.789368 454 702.257935 454 Z M 623.432007 445 C 625.449036 445 628.409485 444.32251 630.010742 443.494446 C 631.612061 442.666382 634.041321 440.078857 635.409119 437.744446 C 636.776917 435.409973 638.594421 430.817932 639.447998 427.539917 C 640.301575 424.261841 641 417.705994 641 412.971375 C 641 408.124634 640.325806 402.092651 639.457092 399.167419 C 638.608459 396.309814 636.549072 392.417114 634.880676 390.516907 C 633.062195 388.44574 630.54071 386.816833 628.585266 386.450012 C 626.640991 386.085266 623.92627 386.421814 621.86499 387.283081 C 619.962891 388.07782 617.234131 390.12146 615.801086 391.824524 C 614.368042 393.527588 612.364075 397.076294 611.347778 399.71051 C 609.919495 403.41272 609.5 407.224182 609.5 416.5 C 609.5 423.743164 610.038147 430.273987 610.857666 432.975281 C 611.638611 435.549561 613.818665 439.053955 615.98999 441.225281 C 618.983887 444.219177 620.523315 445 623.432007 445 Z M 706.184143 440.613159 C 707.735229 440.302979 710.279663 439.389587 711.838501 438.583496 C 713.397339 437.777405 715.785034 435.628845 717.144592 433.80896 C 718.50415 431.989014 720.595337 428.183899 721.791687 425.353149 C 722.988037 422.522339 724.265991 416.987793 724.631592 413.054077 C 725.047241 408.581787 724.836121 403.84552 724.068115 400.413635 C 723.392578 397.395081 721.863403 393.801941 720.669922 392.428894 C 719.446533 391.021423 716.973328 389.693604 715 389.384827 C 712.354797 388.970947 710.645203 389.413086 708 391.195251 C 706.075012 392.492126 703.104736 395.628967 701.399353 398.166016 C 699.69397 400.703064 697.556519 405.733582 696.649353 409.34491 C 695.742188 412.956299 695.002502 418.74353 695.005554 422.205505 C 695.008667 425.66748 695.471802 430.158569 696.034851 432.18573 C 696.597839 434.212891 698.477234 437.065247 700.211243 438.524292 C 702.585022 440.521729 704.060852 441.037842 706.184143 440.613159 Z" />
  <path
     id="path6"
     fill="#d74f1f"
     fill-rule="evenodd"
     stroke="none"
     d="M 586.817383 754.934204 C 585.542847 754.897949 582.025024 754.207764 579 753.400391 C 575.974976 752.593018 570.622925 750.591064 567.106567 748.951599 C 563.590149 747.312134 557.943848 743.994751 554.559204 741.579529 C 551.174622 739.164307 545.726685 734.324585 542.452698 730.824585 C 539.178711 727.324585 534.770996 721.855896 532.657715 718.671997 C 530.544495 715.488037 527.042419 709.099548 524.875427 704.475281 C 522.708435 699.851074 520.095703 692.78418 519.069336 688.771118 C 518.042969 684.758057 516.873474 678.835693 516.47052 675.610291 C 515.982178 671.701538 516.082642 669.871704 516.77179 670.122925 C 517.340454 670.330322 520.0578 673.875 522.810303 678 C 525.562805 682.125 530.596436 688.650024 533.996155 692.5 C 537.395874 696.349976 543.400085 701.934326 547.338745 704.909668 C 551.277466 707.88501 557.284668 711.589417 560.68811 713.141602 C 564.091553 714.693848 569.041565 716.463135 571.68811 717.073364 C 574.334656 717.683716 577.512207 718.254272 578.749268 718.341492 C 580.593933 718.471497 580.998718 719.092285 580.999268 721.792114 C 580.999695 723.602844 581.684143 728.396484 582.520325 732.444702 C 583.356506 736.49292 584.867004 742.211426 585.877014 745.152527 C 586.886963 748.093628 588.033142 751.512512 588.424072 752.75 C 589.024109 754.649536 588.773865 754.989746 586.817383 754.934204 Z M 333.903778 743.865234 C 329.703247 746.230469 329.703247 746.230469 330.413513 738.365234 C 330.804169 734.039368 332.222717 727.222778 333.565826 723.217224 C 334.908966 719.21167 337.544067 712.911682 339.421631 709.217224 C 341.299164 705.522705 345.234894 699.064148 348.167694 694.864746 C 351.100464 690.665344 354.940063 685.612732 356.700165 683.636719 C 359.900299 680.043945 359.900299 680.043945 365.556305 685.973694 C 368.667114 689.234985 374.202026 693.814453 377.85614 696.150085 C 381.510254 698.485779 384.69928 700.544312 384.94281 700.724548 C 385.186371 700.904785 382.711365 703.768433 379.44281 707.088074 C 376.174255 710.407776 369.674988 716.396606 365 720.396545 C 360.325012 724.396545 352.360962 730.781128 347.302155 734.584595 C 342.243347 738.388062 336.214081 742.564331 333.903778 743.865234 Z M 757.5 727.373535 C 752.522339 728.006409 752.511169 728.001465 755 726.268433 C 756.375 725.310913 760.147339 722.046387 763.382935 719.013794 C 766.61853 715.981201 771.499695 710.575012 774.229858 707 C 776.960083 703.424988 780.673279 697.575012 782.481445 694 C 784.289612 690.424988 786.786377 684.349976 788.029846 680.5 C 789.905945 674.691162 790.3703 670.564697 790.758728 656.25 C 791.218506 639.30835 791.265991 639 793.417664 639 C 794.622559 639 797.60907 637.7099 800.054199 636.133057 C 802.49939 634.556274 806.611023 631.214233 809.191223 628.706238 C 811.771362 626.198242 815.47113 621.750854 817.412842 618.82312 C 819.354614 615.895386 822.040283 610.796814 823.381042 607.49292 C 824.721741 604.189087 826.529358 598.045349 827.397949 593.840271 C 828.266541 589.635193 829.274963 581.650879 829.638916 576.097351 C 830.002869 570.543823 830.670044 566 831.121521 566 C 831.573059 566 832.851563 569.037476 833.962769 572.75 C 835.073975 576.462524 836.674683 582.650024 837.519958 586.5 C 838.365173 590.349976 839.335815 600.179016 839.676941 608.342285 C 840.16156 619.940979 839.922607 625.482788 838.583557 633.700989 C 837.641113 639.484985 835.5401 648.330994 833.914673 653.358704 C 832.289246 658.386414 828.709167 667 825.958923 672.5 C 823.208679 678 818.966553 685.159424 816.531921 688.409912 C 814.09729 691.6604 809.980103 696.781494 807.382568 699.790161 C 804.785034 702.798889 799.041626 707.943237 794.619446 711.222168 C 790.197205 714.500977 784.086243 718.440674 781.039551 719.977051 C 777.992798 721.513428 772.575012 723.663086 769 724.75415 C 765.424988 725.845093 760.25 727.023865 757.5 727.373535 Z M 228.116028 629.284241 C 236.856628 637.682556 241.993561 641.72522 245.170517 643.686096 L 250.946793 647.251465 L 245.043228 653.694092 C 241.79628 657.23761 235.470078 665.393555 230.985031 671.81842 C 226.499969 678.243286 219.580963 690.025024 215.609451 698 C 211.637924 705.974976 207.702484 714.299988 206.864029 716.5 C 205.339539 720.5 205.339539 720.5 204.683258 717.5 C 204.322296 715.849976 203.504837 711.236755 202.866669 707.248352 C 202.215515 703.178833 201.950592 695.938354 202.262939 690.748352 C 202.569061 685.661743 203.789474 677.674988 204.974991 673 C 206.160492 668.325012 209.280914 660 211.909256 654.5 C 214.537598 649 219.259354 641.076416 222.402054 636.89209 L 228.116028 629.284241 Z" />
  <path
     id="path7"
     fill="#903927"
     fill-rule="evenodd"
     stroke="none"
     d="M 672.035156 664.860474 C 670.343262 668.220825 670.343262 668.220825 668.602051 662.360474 C 667.644348 659.137207 665.594116 652.450012 664.046021 647.5 C 662.497864 642.549988 658.855957 632.875 655.952881 626 C 653.049805 619.125 649.41864 609.827942 647.883606 605.339844 C 646.348633 600.851807 644.802002 594.988342 644.446716 592.310059 C 643.800781 587.440369 643.800781 587.440369 650.578491 586.279419 C 654.306274 585.640869 660.255188 583.646973 663.79834 581.848572 C 670.240479 578.578735 670.240479 578.578735 672.22522 581.029785 C 673.316833 582.37793 675.292969 585.618042 676.616577 588.22998 C 677.940186 590.842041 679.692932 596.163208 680.511536 600.054932 C 681.3302 603.946655 682 611.810364 682 617.529907 C 682 623.793457 681.211426 631.99707 680.01709 638.158203 C 678.926514 643.78418 677.065063 651.337646 675.880615 654.943604 C 674.696167 658.549683 672.965698 663.012207 672.035156 664.860474 Z M 648 574.997681 C 645.068542 574.998169 641.276062 573.94635 637.119751 571.980103 C 633.610596 570.319946 628.885559 567.507813 626.619751 565.730835 C 624.353882 563.953857 621.220581 561.150024 619.65686 559.5 C 618.09314 557.849976 615.748596 554.849854 614.446777 552.83313 C 613.144958 550.816284 611.795227 548.032349 611.447449 546.646545 C 610.870361 544.347229 611.194763 544.028442 615.157532 543.001465 C 617.545898 542.382446 622.875 540.950134 627 539.818542 C 631.125 538.686951 638.283813 536.427002 642.908447 534.796387 C 650.188232 532.229614 651.636902 532.00293 653.700928 533.107544 C 655.012146 533.809326 658.038269 536.47168 660.425537 539.023865 C 663.947937 542.789551 664.898438 544.625977 665.467773 548.765686 C 665.870117 551.69104 665.681946 556.21521 665.026611 559.371826 C 664.398071 562.399475 662.888489 566.366943 661.671997 568.188354 C 660.455444 570.009766 657.894104 572.286804 655.980042 573.248413 C 654.06604 574.210083 650.474976 574.997192 648 574.997681 Z M 722.439026 548.623047 C 721.922546 548.76001 718.349976 548.019409 714.5 546.977295 C 710.650024 545.935181 704.349976 544.001465 700.5 542.680176 C 696.650024 541.358948 689.900024 538.790283 685.5 536.972107 C 681.099976 535.153931 675.218567 532.394165 672.430176 530.839355 C 669.641724 529.284546 666.313171 526.897766 665.033264 525.5354 C 662.706299 523.058472 662.706299 523.058472 665.103149 521.032593 C 666.421387 519.918457 671.336731 516.553589 676.026123 513.555298 C 680.92041 510.425842 687.741943 504.780396 692.040466 500.30188 C 696.158997 496.010864 700.647217 491.030945 702.014343 489.235474 C 704.197266 486.368591 705.505493 485.772583 712.755676 484.342041 C 719.001282 483.10968 724.11438 482.8526 733.755676 483.286194 C 740.765076 483.601379 749.200012 484.570435 752.5 485.439575 C 755.799988 486.308777 762.11676 488.789795 766.537292 490.952942 C 770.957764 493.11615 776.577576 496.47113 779.025757 498.408386 C 781.473877 500.345703 783.601196 502.303589 783.753113 502.759338 C 783.905029 503.215027 780.825378 504.137268 776.909424 504.808777 C 772.99353 505.480286 766.574402 507.375 762.644775 509.019287 C 758.715149 510.663513 752.448303 514.303345 748.718506 517.107666 C 744.988708 519.911987 739.858704 524.61377 737.318481 527.556091 C 734.778259 530.498413 730.602478 536.386108 728.039001 540.639893 C 725.475464 544.893616 722.955505 548.486084 722.439026 548.623047 Z M 498.353546 537.168335 C 497.705292 538.201904 496.452423 537.392456 493.144409 533.802734 C 490.74881 531.203125 486.712463 528.071045 484.174744 526.842529 C 480.591064 525.107727 477.72464 524.596741 471.338989 524.554443 C 463.11731 524.5 463.11731 524.5 466.308655 521.164917 C 468.063904 519.330566 471.339539 516.743042 473.58786 515.414917 C 476.443542 513.727905 479.184265 513 482.680573 513 C 485.959686 513 489.168793 513.784424 491.987366 515.274902 C 494.474487 516.590149 497.101074 519.015869 498.213531 521.024902 C 499.6922 523.695435 500.029968 525.809021 499.672424 530.153748 C 499.416504 533.263306 498.822998 536.419922 498.353546 537.168335 Z M 438.184906 529.850159 C 436.708191 529.767761 434.279388 529.514526 432.787567 529.287354 C 430.303802 528.90918 430.135193 528.605713 430.787567 525.687195 C 431.179413 523.934204 431.38623 520.287659 431.247162 517.583618 C 431.108093 514.879639 429.847076 510.154663 428.444885 507.083679 C 427.042725 504.012634 424.231506 499.788696 422.197723 497.697083 C 420.163971 495.605469 416.299805 492.480835 413.610687 490.753418 C 410.92157 489.026062 407.389343 487.417236 405.761322 487.178284 C 403.066254 486.782715 402.854889 486.475525 403.400604 483.746887 C 403.730286 482.098633 404 479.202515 404 477.311218 C 404 473.872437 404 473.872437 411.75 479.834473 C 416.012512 483.113586 422.955597 487.881653 427.179138 490.430115 C 431.402649 492.978638 438.827667 496.897705 443.679138 499.139221 C 448.530609 501.380737 454.886261 504.107605 457.802795 505.198975 C 460.71933 506.290283 462.957855 507.479492 462.777252 507.841614 C 462.59668 508.203735 459.197144 511.735229 455.222748 515.689453 C 451.248322 519.643677 447.555389 524.039185 447.016205 525.457397 C 446.47702 526.875549 444.873505 528.477783 443.45282 529.017944 C 442.032166 529.558105 439.661591 529.932617 438.184906 529.850159 Z M 422.801666 472 C 422.627655 472 419.563599 469.468201 415.992645 466.373779 C 412.421692 463.279297 408.149994 459.146973 406.5 457.190796 C 404.850006 455.234558 403.375885 453.152466 403.224213 452.563904 C 403.07254 451.975281 409.597534 448.166748 417.724213 444.100464 C 425.850891 440.03418 439.157715 433.838928 447.294922 430.333252 C 455.432159 426.827637 468.032135 421.921509 475.294922 419.430847 C 482.557709 416.940125 495.924988 412.907227 505 410.468811 C 514.075012 408.030396 528.474976 404.87738 537 403.462158 C 545.525024 402.046936 558.575012 400.626221 566 400.304993 C 579.5 399.721008 579.5 399.721008 579 407.044983 C 578.5 414.368896 578.5 414.368896 565.5 416.210083 C 558.349976 417.222717 546.978516 419.383545 540.230042 421.011841 C 533.481567 422.640198 521.55658 426.06427 513.730042 428.621033 C 505.903534 431.177734 493.511444 435.688354 486.192108 438.644653 C 478.872742 441.600952 466.722748 446.958984 459.192108 450.551392 C 451.661438 454.143799 440.231628 460.063293 433.792542 463.705872 C 427.353424 467.348389 422.317474 470.704712 422.601563 471.164307 C 422.88562 471.623962 422.975677 472 422.801666 472 Z" />
  <path
     id="path8"
     fill="#eea51f"
     fill-rule="evenodd"
     stroke="none"
     d="M 580 387 C 577.481201 387.011292 575.774414 387.275818 574 387 C 573.089783 386.858521 575.334778 383.477417 576 382 C 576.665161 380.522583 578.870789 377.235291 580 376 C 581.333801 374.540894 582.979187 372.8125 584.490173 370.75 C 586.115295 368.531677 586.801636 368.177795 588 368 C 589.701843 367.747498 593.451111 367.338623 594 368 C 594.697632 368.840515 591.214966 373.652527 587.756653 378.843567 C 582.766968 386.333252 583.710938 386.983398 580 387 Z" />
  <path
     id="path9"
     fill="#e25a1d"
     fill-rule="evenodd"
     stroke="none"
     d="M 258.282013 504.40387 C 255.782928 490.528381 252.80838 473.674988 250.059586 458 C 247.310776 442.325012 244.775711 427.652344 244.426102 425.394043 C 243.890671 421.935425 244.082886 421.203918 245.645218 420.754333 C 246.665344 420.460815 252 415.63269 257.5 410.025269 C 263 404.417847 270.715729 397.17749 274.646027 393.935669 L 281.792084 388.041443 L 283.867737 395.770691 C 285.009369 400.021851 289.105347 416.41333 292.96994 432.19635 L 299.996429 460.892639 L 284.158478 476.69635 C 275.447601 485.388367 266.061829 495.178345 263.301239 498.451904 L 258.282013 504.40387 Z M 557.5 357.537842 C 551.5 358.176025 551.5 358.176025 550.312134 353.338013 C 549.658875 350.677124 545.541077 337.924988 541.161499 325 C 536.781982 312.075012 532.875916 300.415771 532.481384 299.090637 C 531.764099 296.681335 531.764099 296.681335 553.132019 297.325867 C 564.884399 297.68042 579 298.659912 584.5 299.502625 C 590 300.345276 596.790771 301.307434 599.590637 301.640808 C 604.681213 302.246887 604.681213 302.246887 609.285889 312.373474 C 611.818481 317.943054 616.869873 328.732849 620.511169 336.350769 C 624.152527 343.968689 626.989624 350.288147 626.815918 350.393982 C 626.642151 350.499817 623.021973 351.579468 618.771057 352.793213 C 612.806824 354.496155 608.354614 355.005432 599.271057 355.023682 C 592.796997 355.036682 582.099976 355.464111 575.5 355.973511 C 568.900024 356.48291 560.799988 357.18689 557.5 357.537842 Z" />
  <path
     id="path10"
     fill="#e69919"
     fill-rule="evenodd"
     stroke="none"
     d="M 244.78688 421.821045 C 244.394669 421.99762 243.857513 421.097595 243.593216 419.821045 C 243.328918 418.544495 241.729996 409.174988 240.04007 399 C 238.350128 388.825012 235.397491 371.612854 233.478638 360.750793 C 231.559799 349.888733 228.171143 330.763733 225.948303 318.250793 C 223.725479 305.737854 220.323502 287.174988 218.388367 277 C 216.097488 264.954529 214.999084 256.535767 215.240082 252.870178 C 215.515686 248.678406 216.490189 245.76123 219.055115 241.449951 C 220.949799 238.26532 226.324997 231.677917 231 226.81134 C 236.62915 220.951538 239.911346 218.23584 240.717926 218.770691 C 241.387772 219.214905 243.347534 225.635742 245.072952 233.039185 C 246.798355 240.442627 249.242432 251 250.504242 256.5 C 251.766037 262 254.655869 274.375 256.926086 284 C 259.19632 293.625 263.061096 309.938843 265.514496 320.252991 C 267.967896 330.567078 272.27243 348.567078 275.080139 360.252991 C 277.887848 371.938843 280.405518 383.075012 280.674957 385 C 281.142151 388.337646 280.824677 388.775085 273.832428 394.429932 C 269.799591 397.691345 261.774994 405.116394 256 410.929932 C 250.225006 416.743469 245.179092 421.64447 244.78688 421.821045 Z M 531.651184 296.5 C 517.064697 252.325012 509.974457 230.724976 506.484436 220 C 502.994446 209.275024 495.351135 185.875 489.499329 168 C 483.647522 150.125 478.597839 133.97876 478.277802 132.119446 C 477.695953 128.738953 477.695953 128.738953 492.097961 129.262634 C 500.661652 129.574036 508.932312 130.447754 512.5 131.417969 C 515.799988 132.31543 520.299988 134.276001 522.5 135.774841 C 526.031677 138.180908 527.871582 141.251465 538.214661 162 C 544.657715 174.924988 553.18573 192.474976 557.165771 201 C 561.145874 209.525024 567.010193 221.994934 570.197571 228.710938 C 573.384949 235.426941 578.854492 247.126953 582.352051 254.710938 C 585.849609 262.294922 592.173889 275.857056 596.405945 284.84906 C 600.638062 293.841003 603.965515 301.506287 603.800293 301.882996 C 603.635132 302.259766 599.450012 301.797302 594.5 300.855408 C 589.549988 299.913452 579.200012 298.630066 571.5 298.003418 C 563.799988 297.37677 551.684021 296.782104 544.575623 296.682007 L 531.651184 296.5 Z" />
</svg>
